<svg id="Layer_2" data-name="Layer 2" xmlns="http://www.w3.org/2000/svg" viewBox="0 0 2846.32 1080.43"><defs><style>.cls-1{fill:#dbb454;}</style></defs><path class="cls-1" d="M513.47,562q-52.34,48.56-138.29,48.53a279,279,0,0,1-72-9.21,284.21,284.21,0,0,1-67-27.24l-8.3,31.76H182.07L122.86,419.58l57.78-19.85Q214.2,466.53,262.75,503t102.7,36.45q38.25,0,64.26-19.29t26-45.66q0-39.75-109.35-67.16Q331.87,404,324,401.9q-53.43-13.36-84.84-24t-44.4-19.68A127,127,0,0,1,153,310.71q-14.59-28.66-14.6-63.34,0-68.55,50.35-113.69t128-45.14a213.09,213.09,0,0,1,61.21,8.69,225,225,0,0,1,56.48,26l10.12-26h46.57L534,245.94,482.4,264.36Q455,214.5,414,186.55t-86.1-28q-34.29,0-54.87,14.42t-20.6,37.58q0,38.27,126.38,67.12c12,2.92,21.16,5.17,27.42,6.87q90.26,21.63,124.9,55.39t34.67,93.71q0,79.75-52.35,128.33M627.29,0H61.39A61.35,61.35,0,0,0,0,61.34V637.72a61.35,61.35,0,0,0,61.39,61.34h565.9a61.35,61.35,0,0,0,61.39-61.34V61.34A61.35,61.35,0,0,0,627.29,0"/><path class="cls-1" d="M1237.72,599.35H813.93V538q33.95-1.11,45.83-16.42t11.94-76V253.5q0-60.62-11.94-76.16t-45.83-16.25V99.75h413.32l67.17,150.53-45.88,24.55q-39.69-57.81-87.15-86.28T1057.26,160c-21.94,0-36.67,3.83-44.23,11.39s-11.38,25.11-11.38,52.52v71.47h23.8q38.65,0,52-15t15.85-62.6h52.74v225.6h-52.74q-5-44.77-21.11-64.6t-46.75-19.85h-23.8v117q0,40.39,11.73,52t45.31,11.55q56.63,0,111.69-36.45t94.8-101.05l48,26ZM1346.5,0H780.6a61.34,61.34,0,0,0-61.38,61.34V637.72a61.34,61.34,0,0,0,61.38,61.34h565.9a61.37,61.37,0,0,0,61.39-61.34V61.34A61.37,61.37,0,0,0,1346.5,0"/><path class="cls-1" d="M1956.94,599.35h-423.8V538q34-1.11,45.83-16.42t12-76V253.5q0-60.62-12-76.16t-45.83-16.25V99.75h413.33l67.16,150.53-45.88,24.55q-39.68-57.81-87.14-86.28T1776.47,160c-21.94,0-36.67,3.83-44.22,11.39s-11.39,25.11-11.39,52.52v71.47h23.81q38.64,0,52-15t15.86-62.6h52.74v225.6h-52.74q-5-44.77-21.11-64.6t-46.75-19.85h-23.81v117q0,40.39,11.73,52t45.32,11.55q56.63,0,111.69-36.45t94.79-101.05l48,26ZM2065.72,0h-565.9a61.35,61.35,0,0,0-61.39,61.34V637.72a61.35,61.35,0,0,0,61.39,61.34h565.9a61.37,61.37,0,0,0,61.39-61.34V61.34A61.37,61.37,0,0,0,2065.72,0"/><path class="cls-1" d="M2787.72,599.35h-269v-60q26-1,38.44-7.38t12.47-18.6a44.09,44.09,0,0,0-3.6-16.42c-2.44-5.91-7.82-15.12-16.25-27.63l-75.46-114.78-66.43,52.7V447q0,59.55,12.64,75.28t48.75,17.12v60H2216.26V537.23q36.09-1.44,48.74-16.94t12.64-74.73V253.5q0-59.17-12.64-74.9t-48.74-16.77V99.75h253.06V160q-36.11,1.5-48.75,17.17t-12.64,74.54v68.21l119.86-100q19.49-15.9,28.16-25.81c5.77-6.65,8.64-12,8.64-16.07q0-10.11-8.08-14.47t-27.28-4.3h-10.47V99.75h239.72v62.08q-36.81,6.51-65.17,19.68T2631,223.17L2566.76,277l114.09,179q25.28,39.36,51.61,60.26t50.91,20.94h4.35ZM2784.94,0H2219a61.35,61.35,0,0,0-61.39,61.34V637.72A61.35,61.35,0,0,0,2219,699.06h565.9a61.37,61.37,0,0,0,61.38-61.34V61.34A61.37,61.37,0,0,0,2784.94,0"/><path class="cls-1" d="M0,748.89H66v16.19q-9.41.28-12.71,4.47T50,789v50.07q0,15.24,3.25,19.39T66,863v16.18H0V863q9.51-.37,12.76-4.52T16,839.06V789q0-15.35-3.24-19.44T0,765.08Z"/><path class="cls-1" d="M172.71,748.89h55.35l45.46,74.54V788.52q0-15.54-3.11-19.63t-12-4.47V748.89h48.37v16q-9.12.29-12.28,4.38T291.31,789v90.16H267.4L205.84,778.91v60.53q0,15.52,3.16,19.62t12.09,4.47v15.62H172.71v-16q9.14-.37,12.29-4.47t3.15-19.62V789q0-15.54-3.15-19.68t-12.29-4.42Z"/><path class="cls-1" d="M420.63,748.89H528.21l14.87,39.81-12.52,4.9q-7.62-14.88-16-20.94t-21.14-6.07h-2v72.47q0,15.35,3.2,19.48T506.84,863v16.18H442.09V863q9-.29,12.23-4.33t3.21-19.58V766.59h-2q-12.71,0-21.18,6.07t-16,20.94l-12.52-4.9Z"/><path class="cls-1" d="M643.32,748.89H751.09l17.5,39.25-12,6.4q-10.35-15.06-22.73-22.49a51.71,51.71,0,0,0-27.15-7.44q-8.57,0-11.53,3t-3,13.7v18.64h6.22q10.07,0,13.55-3.91t4.14-16.33h13.74v58.82H716.17q-1.32-11.65-5.51-16.84t-12.18-5.18h-6.22V847q0,10.54,3.06,13.56t11.81,3q14.79,0,29.13-9.51T761,827.67l12.52,6.78-19.67,44.7H643.32v-16q8.83-.27,11.95-4.28t3.11-19.81V789q0-15.82-3.11-19.86t-11.95-4.24Z"/><path class="cls-1" d="M928.7,805.17q1.31.11,2.82.15c1,0,2.51,0,4.52,0q18.35,0,27.39-5.08t9-15.34a16.78,16.78,0,0,0-7.62-14.59q-7.62-5.26-20.71-5.27-9.23,0-12.33,3t-3.1,13.18Zm-49.8-56.28h74.64q26.93,0,40.24,8.8t13.32,26.59q0,13.37-7.34,21.79t-22.69,12.75l26.17,32.57a32.37,32.37,0,0,0,9.79,8.7,31.47,31.47,0,0,0,11.86,3.25v15.81h-41.7l-41.41-56.47H928.7v16.38q0,15.44,3.2,19.53T944.51,863v16.18H878.9V863q9.42-.37,12.62-4.43t3.2-19.48V789q0-15.54-3.2-19.58t-12.62-4.33Z"/><path class="cls-1" d="M1125,748.89h55.35l45.46,74.54V788.52q0-15.54-3.11-19.63t-12-4.47V748.89h48.38v16q-9.13.29-12.28,4.38T1243.62,789v90.16h-23.9l-61.56-100.24v60.53q0,15.52,3.16,19.62t12.09,4.47v15.62H1125v-16q9.13-.37,12.29-4.47t3.15-19.62V789q0-15.54-3.15-19.68T1125,764.89Z"/><path class="cls-1" d="M1424.62,778.73l-14,37.55H1437Zm-7.91-29.84h29.74l36.43,96.57.19.75q6,15.63,17.51,16.94v16h-63.44V863.53h1.6q6.87,0,9.69-1.74t2.82-5.79a18.44,18.44,0,0,0-.23-3.15,13.33,13.33,0,0,0-.71-2.59l-6.77-18h-39.91l-5.55,18c-.19.75-.33,1.46-.43,2.12a13.16,13.16,0,0,0-.14,1.74q0,5,3.16,7.11c2.09,1.4,5.85,2.18,11.24,2.3v15.62h-54.3v-16q13.64-2,21-20c.44-1,.76-1.79,1-2.36Z"/><path class="cls-1" d="M1608.15,748.89h107.59l14.87,39.81-12.52,4.9q-7.62-14.88-16-20.94t-21.13-6.07h-2v72.47q0,15.35,3.19,19.48t12.24,4.43v16.18h-64.75V863q9-.29,12.23-4.33t3.2-19.58V766.59h-2q-12.72,0-21.18,6.07t-16,20.94l-12.52-4.9Z"/><path class="cls-1" d="M1831.41,748.89h66v16.19q-9.41.28-12.71,4.47T1881.39,789v50.07q0,15.24,3.25,19.39t12.75,4.52v16.18h-66V863q9.51-.37,12.76-4.52t3.24-19.39V789q0-15.35-3.24-19.44t-12.76-4.47Z"/><path class="cls-1" d="M2076.41,762.35q-16.18,0-25.13,13.55T2042.34,814q0,24.48,8.94,38t25.13,13.51q16.18,0,25.18-13.56t9-37.93q0-24.46-9-38.07t-25.13-13.6m0-16.38q31.53,0,51.06,18.73T2147,814q0,30.5-19.57,49.27t-51,18.78q-31.53,0-51-18.78T2005.91,814q0-30.49,19.49-49.27t51-18.78"/><path class="cls-1" d="M2254.67,748.89H2310l45.46,74.54V788.52q0-15.54-3.11-19.63t-12-4.47V748.89h48.37v16q-9.13.29-12.28,4.38T2373.27,789v90.16h-23.91L2287.8,778.91v60.53q0,15.52,3.16,19.62t12.09,4.47v15.62h-48.38v-16q9.14-.37,12.29-4.47t3.15-19.62V789q0-15.54-3.15-19.68t-12.29-4.42Z"/><path class="cls-1" d="M2554.26,778.73l-14,37.55h26.35Zm-7.91-29.84h29.75l36.42,96.57.19.75q6,15.63,17.51,16.94v16h-63.44V863.53h1.6q6.87,0,9.69-1.74t2.83-5.79a18.36,18.36,0,0,0-.24-3.15,14.07,14.07,0,0,0-.7-2.59l-6.78-18h-39.91l-5.55,18a19.3,19.3,0,0,0-.42,2.12,11.79,11.79,0,0,0-.15,1.74q0,5,3.16,7.11c2.1,1.4,5.85,2.18,11.24,2.3v15.62h-54.3v-16q13.64-2,21-20c.44-1,.76-1.79.95-2.36Z"/><path class="cls-1" d="M2729.32,748.89h61.75v15.72q-8.19.28-11.06,4.28t-2.87,20.1V844.8q0,11.1,2.54,13.88t10,2.78q12.14,0,23.39-9.18t19.81-26.12l13.46,7.72L2829,879.15h-99.68V863.34q8.19-.18,11.07-4.09t2.86-20.19V789q0-16.38-2.86-20.24t-11.07-4.14Z"/><path class="cls-1" d="M5.29,938h113l13.26,35.12-6.19,2.85q-12.47-15.21-27.2-22.27t-34-7.07q-11.6,0-16,3.92t-4.42,15.11v30.61H57q13.17,0,18.34-5.05T82.2,971.5h7v59.06h-7q-1.67-14.62-6.78-19.57T57,1006H43.75v39.34q0,11.69,5,15.5t18.51,3.83q19.35,0,34.47-8.39t31.13-28.2l5.6,2.45-17.08,42.18H5.29v-6.48q10.5-.78,14.13-4.9t3.63-16.58V965.61q0-12.25-3.58-16.33t-14.18-5Z"/><path class="cls-1" d="M75.83,942.6a77.66,77.66,0,0,1,24.35,6.85,81.84,81.84,0,0,1,24.51,18.61l-9.61-25.46Zm-57.9,125.5H54a21.19,21.19,0,0,1-8.12-3.53c-4.56-3.54-6.78-9.81-6.78-19.21v-44H57c10.19,0,17.26,2,21.62,6.27,2.49,2.42,4.44,5.92,5.87,10.61V983.8c-1.43,4.69-3.4,8.23-5.89,10.68-4.43,4.31-11.48,6.4-21.6,6.4H39.1V965.61c0-8.92,2-15,6-18.57,2.45-2.18,5.87-3.66,10.32-4.44H18.06A15.1,15.1,0,0,1,23,946.2c3.25,3.69,4.76,9.85,4.76,19.41v79.17c0,9.69-1.53,15.92-4.78,19.66a15.92,15.92,0,0,1-5,3.66m64,0H118.2l12.09-29.84c-8.94,10-17.78,17.37-26.35,22.11a69.88,69.88,0,0,1-22,7.73m42.58,9.3H.63v-15.46l4.31-.31c7.5-.55,10.1-2.33,11-3.33.73-.85,2.47-3.87,2.47-13.52V965.61c0-9.47-1.7-12.43-2.43-13.27S12.77,949.62,4.9,949l-4.27-.34V933.3H121.51l15.94,42.19L124,981.64l-2.28-2.78c-7.83-9.54-16.46-16.61-25.62-21s-19.91-6.62-32-6.62c-8.54,0-11.76,1.73-12.92,2.75s-2.85,3.72-2.85,11.63v26H57c9.3,0,13.33-2,15.08-3.73s4.25-6.18,5.47-16.88l.45-4.13H93.83v68.37H78l-.45-4.13c-1.29-11.27-3.94-15.34-5.42-16.77-1.7-1.66-5.72-3.64-15.13-3.64H48.41v34.69c0,6.05,1.12,10.27,3.16,11.85,1.36,1,5.25,2.84,15.64,2.84,12.05,0,22.9-2.64,32.22-7.82,9.49-5.25,19.5-14.35,29.78-27.06l2.24-2.76,13,5.69Z"/><path class="cls-1" d="M217.36,1044.39q0,12.16,4.9,16.43t17.17,4.27q29.25,0,46-15.4t16.73-42.48q0-29.13-16-45.28T241.2,945.8q-13.15,0-18.49,4.07T217.36,965ZM178.32,938h57.49q25.11,0,37.08,2.4a67.78,67.78,0,0,1,21.39,8,61,61,0,0,1,23.44,23.93q7.95,14.82,7.94,34.54,0,17.75-7.06,31.49a57.5,57.5,0,0,1-20.5,22.36,67.52,67.52,0,0,1-22.71,9.28q-12.81,2.79-40.37,2.79h-56.7v-6.67q11-.78,14.76-4.9t3.78-16.78V966.1q0-12.54-3.78-16.72t-14.76-5.06Z"/><path class="cls-1" d="M241.21,950.45c-9.58,0-13.82,1.69-15.69,3.13-2.9,2.2-3.5,7.43-3.5,11.45v79.35c0,6.49,1.18,11.09,3.3,12.94,1.64,1.42,5.44,3.13,14.12,3.13,18.17,0,32.58-4.78,42.81-14.18s15.21-22.22,15.21-39.07c0-18.06-4.92-32.2-14.64-42s-23.7-14.76-41.61-14.76m21-6.87a56.94,56.94,0,0,1,27.2,15.09c11.5,11.59,17.34,27.93,17.34,48.53,0,19.32-6.13,34.76-18.21,45.9a60.84,60.84,0,0,1-26.68,14.05,105.62,105.62,0,0,0,12.52-1.74,63.31,63.31,0,0,0,21.16-8.64,53.11,53.11,0,0,0,18.89-20.58c4.37-8.47,6.56-18.34,6.56-29.37,0-12.3-2.49-23.19-7.39-32.34a57,57,0,0,0-21.7-22.12A63.26,63.26,0,0,0,272,944.91a95.86,95.86,0,0,0-9.76-1.33M191,1068.1h35.31a19.59,19.59,0,0,1-7.07-3.77c-4.38-3.81-6.51-10.34-6.51-19.95V965c0-8.89,2.42-15.25,7.18-18.87a22.31,22.31,0,0,1,7.76-3.56H191.43a15.74,15.74,0,0,1,5.09,3.66c3.36,3.72,5,10.21,5,19.84v78.28c0,9.85-1.58,16.17-5,19.92a16.48,16.48,0,0,1-5.56,3.8m44,9.3H173.66v-15.65l4.33-.31c8-.58,10.72-2.39,11.68-3.41.75-.84,2.55-3.87,2.55-13.65V966.1c0-9.69-1.8-12.74-2.59-13.61-.94-1-3.74-2.89-11.68-3.53l-4.29-.34V933.3h62.15c17.19,0,29.62.82,38,2.49a72.49,72.49,0,0,1,22.85,8.56,65.93,65.93,0,0,1,25.15,25.73c5.66,10.54,8.51,22.89,8.51,36.74,0,12.52-2.55,23.82-7.58,33.62a62.48,62.48,0,0,1-22.13,24.15,72.27,72.27,0,0,1-24.22,9.9c-8.89,1.93-22.81,2.91-41.38,2.91"/><path class="cls-1" d="M366.75,938h56.51v6.37q-11.1,1-14.82,5t-3.73,16.28v64.75q0,19.52,8.93,27.52t29.72,8q20.91,0,30-8.09t9.13-27.22V965.61q0-12.06-3.68-16.19t-14.57-5.1V938h48.17v6.37q-11.19.88-14.91,5t-3.73,16.28v69.17q0,20.49-13.15,30.75t-39.33,10.25q-27.68,0-41.75-10T385.48,1036V965.61q0-12.25-3.77-16.33t-15-5Z"/><path class="cls-1" d="M380.11,942.6a15.8,15.8,0,0,1,5,3.49c3.4,3.69,5,10.07,5,19.52V1036c0,11.67,4,20.17,12.14,26,8.52,6.09,21.64,9.18,39,9.18,16.32,0,28.58-3.13,36.49-9.27,7.63-6,11.34-14.81,11.34-27.09V965.61c0-9.54,1.56-15.7,4.92-19.41a15.72,15.72,0,0,1,5.07-3.6h-22a15.92,15.92,0,0,1,5.19,3.71c3.31,3.74,4.86,9.87,4.86,19.3v64.94c0,14.1-3.6,24.44-10.69,30.71s-17.88,9.27-33.11,9.27-25.91-3-32.83-9.18-10.47-16.68-10.47-31V965.61c0-9.61,1.58-15.79,5-19.44a15.88,15.88,0,0,1,5.13-3.57Zm61.2,137.83c-19.37,0-34.31-3.67-44.45-10.92-10.63-7.57-16-18.88-16-33.56V965.61c0-9.4-1.78-12.36-2.54-13.19-.94-1-3.76-2.82-11.9-3.46l-4.29-.32V933.3h65.8v15.28l-4.24.38c-8.1.73-10.88,2.51-11.81,3.53-.74.8-2.49,3.71-2.49,13.12v64.74c0,11.58,2.49,19.66,7.38,24.08,5.05,4.51,14,6.8,26.62,6.8s21.75-2.33,26.93-6.94c5-4.42,7.56-12.42,7.56-23.74V965.61c0-9.29-1.74-12.25-2.49-13.1-.91-1-3.61-2.84-11.52-3.55l-4.23-.38V933.3h57.47v15.34l-4.28.32c-8.13.64-10.91,2.46-11.83,3.49-.77.84-2.53,3.78-2.53,13.16v69.16c0,15.12-5,26.71-14.94,34.43-9.57,7.45-23.77,11.23-42.19,11.23"/><path class="cls-1" d="M664.07,948.15l4.42-10.2H674l10.4,48.36-5.79.89q-10-21.39-23.4-32.62T626.3,943.34q-22,0-35.41,16.83t-13.44,44.49q0,28.16,13.34,44.78t35.9,16.63a60.77,60.77,0,0,0,30.17-7.65q13.7-7.65,23.89-22.66l7.65,4.81q-11.48,17.36-27.32,26.09t-36,8.73a75.05,75.05,0,0,1-24.38-4.17,70.46,70.46,0,0,1-21.44-11.53,64.26,64.26,0,0,1-18.73-23.84,72.84,72.84,0,0,1-6.58-31q0-30.33,19.82-50t50.72-19.71a62.1,62.1,0,0,1,19.62,3.18,88.11,88.11,0,0,1,19.91,9.86"/><path class="cls-1" d="M652.82,947a59.42,59.42,0,0,1,5.36,4c6.91,5.79,13.22,13.54,18.83,23.11l-6.36-29.49L666.16,955l-4.61-3a98.07,98.07,0,0,0-8.73-5m-41.7-6.19a60.74,60.74,0,0,0-34,17.31c-12.43,12.36-18.46,27.66-18.46,46.74a69,69,0,0,0,6.14,29.06,60.42,60.42,0,0,0,17.41,22.13,66.28,66.28,0,0,0,20.06,10.77,69.17,69.17,0,0,0,23.72,3.91c-16.1-.18-29.15-6.36-38.8-18.37s-14.37-27.95-14.37-47.7c0-19.46,4.87-35.4,14.46-47.39a47.28,47.28,0,0,1,23.86-16.46m14,139.22a80.21,80.21,0,0,1-25.89-4.41,75.26,75.26,0,0,1-22.83-12.29,68.91,68.91,0,0,1-20.06-25.53,77.93,77.93,0,0,1-7-32.94c0-21.39,7.12-39.34,21.19-53.33s32.23-21.08,54-21.08a67.31,67.31,0,0,1,21.1,3.43,87.88,87.88,0,0,1,16.3,7.49l3.51-8.07h12.3L690,990.16l-14.12,2.16-1.47-3.16c-6.35-13.58-13.81-24-22.17-31C644.07,951.33,635.6,948,626.29,948c-13.28,0-23.67,4.93-31.76,15.08-8.25,10.31-12.43,24.3-12.43,41.58,0,17.57,4.14,31.67,12.32,41.88,8.05,10,18.61,14.89,32.27,14.89a56.47,56.47,0,0,0,27.9-7.07c8.43-4.71,15.93-11.85,22.31-21.23l2.53-3.7,15.48,9.74-2.62,4c-8,12.16-17.79,21.44-29,27.6s-24,9.3-38.18,9.3"/><path class="cls-1" d="M786.87,954.43l-22.07,59.06H809ZM782.26,938H800.8L844,1051.65q2.56,7,6.82,10.25t11.83,4.17v6.67H808.16v-6.48h2.45c4.31,0,7.57-.68,9.76-2a6.8,6.8,0,0,0,3.29-6.18,23.08,23.08,0,0,0-.34-3.83,25.77,25.77,0,0,0-1-3.92l-10.11-27.37H761.36l-8.83,23.54a26.79,26.79,0,0,0-1.27,4.66,23.32,23.32,0,0,0-.49,4.17c0,2.81,1.4,5.16,4.22,7.06s7.16,3.43,13,4.61v5.79H717v-6.67a21.6,21.6,0,0,0,11.77-4.12,22.67,22.67,0,0,0,7.66-10.1Z"/><path class="cls-1" d="M771.5,1008.84h30.82L786.88,967.7Zm51.43,59.26h29.2a22.17,22.17,0,0,1-4.18-2.51c-3.54-2.71-6.36-6.87-8.36-12.36l-42-110.63H787.4l28.37,75.54H758.09l28.24-75.54h-.93l-44.63,111a27.38,27.38,0,0,1-9.23,12.12,27.05,27.05,0,0,1-4,2.39H755.8a24.17,24.17,0,0,1-3.41-1.88c-5.18-3.52-6.27-7.88-6.27-10.94a29.33,29.33,0,0,1,.56-5,32.86,32.86,0,0,1,1.51-5.47l10-26.53h57.27l11.23,30.4a30.81,30.81,0,0,1,1.26,4.78,27.07,27.07,0,0,1,.4,4.6,11.5,11.5,0,0,1-5.38,10.07m44.34,9.3H803.5v-15.79h7.11c4.49,0,6.48-.84,7.27-1.33A2.2,2.2,0,0,0,819,1058a17.64,17.64,0,0,0-.27-3,18.48,18.48,0,0,0-.84-3.21L809,1027.56H764.58l-7.69,20.53a20.36,20.36,0,0,0-1,3.89,18.31,18.31,0,0,0-.42,3.3c0,.53,0,1.75,2.18,3.22,1.55,1,4.8,2.58,11.34,3.89l3.74.74v14.27H712.37v-15.7l4.36-.27a17.15,17.15,0,0,0,9.33-3.24,18,18,0,0,0,6.06-8.07l47-116.82H804l44.3,116.7c1.4,3.85,3.18,6.57,5.29,8.21s5.38,2.74,9.56,3.25l4.11.49Z"/><path class="cls-1" d="M899.07,938H1000.9l9.81,34.53-8.43,3.24q-5.7-14.22-15.55-22.27t-21.34-8.05c-2.1,0-3.47.48-4.12,1.43s-1,3.12-1,6.52v91.43q0,12.46,3.64,16.58t14.12,4.9v6.48H922.13v-6.48q10.49-.78,14.07-4.9t3.58-16.58v-92.6c0-2.95-.31-4.81-.93-5.6s-2-1.18-4.07-1.18q-11.67,0-21.54,8.05T897.8,975.72l-8.64-3.24Z"/><path class="cls-1" d="M976.8,942.6a41.1,41.1,0,0,1,12.87,7.25,56.72,56.72,0,0,1,15.1,19.92l.31-.11-7.69-27.06Zm-82,27,.46.19a55.55,55.55,0,0,1,15-20,40.82,40.82,0,0,1,12.93-7.25H902.57Zm39.93,98.48h30.65a15.15,15.15,0,0,1-5-3.66c-3.27-3.74-4.8-10-4.8-19.66V953.34c0-4.56.53-7.28,1.78-9.14a7.66,7.66,0,0,1,1.51-1.6H941.41a8.63,8.63,0,0,1,1.09,1.09c1.36,1.73,1.94,4.27,1.94,8.49v92.6c0,9.67-1.49,15.9-4.71,19.63a15.39,15.39,0,0,1-5,3.69m48,9.3H917.47v-15.46l4.31-.31c7.47-.55,10.05-2.31,10.92-3.31.73-.84,2.44-3.87,2.44-13.54v-92.6c0-.93,0-1.62-.09-2.13h-.28c-6.72,0-12.81,2.29-18.59,7s-10.65,11.68-14.06,20.37l-1.67,4.25-16.94-6.34,12-42h108.85l11.93,42-16.68,6.4L998,977.44c-3.48-8.71-8.24-15.56-14.17-20.39-5.78-4.71-11.79-7-18.39-7-.18-1.12-.45.17-.45,3.29v91.44c0,9.65,1.74,12.67,2.49,13.52.87,1,3.47,2.78,11,3.33l4.31.31Z"/><path class="cls-1" d="M1046.3,938H1103v6.37q-10.7,1-14.28,5t-3.57,16.28v79.17q0,12.46,3.62,16.58t14.23,4.9v6.48h-56.7v-6.48q10.79-1,14.46-5t3.69-16.43V965.61q0-12.25-3.64-16.28t-14.51-5Z"/><path class="cls-1" d="M1058.85,1068.1h31.42a15,15,0,0,1-5-3.66c-3.27-3.74-4.8-10-4.8-19.66V965.61c0-9.56,1.51-15.7,4.74-19.37a15.7,15.7,0,0,1,5-3.64h-31.09a15.33,15.33,0,0,1,5.07,3.62c3.29,3.63,4.84,9.79,4.84,19.39v79.17c0,9.65-1.57,15.87-4.89,19.55a15.93,15.93,0,0,1-5.36,3.77m48.81,9.3h-66V1062l4.23-.38c7.82-.71,10.52-2.51,11.43-3.53.75-.83,2.49-3.78,2.49-13.32V965.61c0-9.45-1.71-12.36-2.43-13.16-.89-1-3.58-2.78-11.49-3.49l-4.23-.38V933.3h66v15.28l-4.24.38c-7.72.71-10.34,2.47-11.23,3.46-.71.81-2.4,3.74-2.4,13.19v79.17c0,9.65,1.75,12.67,2.49,13.52.88,1,3.49,2.78,11,3.33l4.33.31Z"/><path class="cls-1" d="M1217.31,944.71q-22.89,0-36,16.19t-13.1,44.55q0,28.24,13.1,44.33t36,16.09q22.79,0,35.94-16.13t13.16-44.29q0-28.26-13.16-44.5t-35.94-16.24m0-9.8q31.41,0,51.88,19.91t20.47,50.63q0,30.69-20.37,50.52t-52,19.81q-31.71,0-52-19.76T1145,1005.45q0-30.91,20.41-50.73t51.94-19.81"/><path class="cls-1" d="M1217.3,949.36c-13.88,0-24.47,4.73-32.38,14.47-8,9.9-12.06,23.91-12.06,41.61s4.05,31.56,12.06,41.4c7.89,9.68,18.48,14.39,32.38,14.39s24.43-4.73,32.35-14.43,12.1-23.77,12.1-41.36-4.07-31.64-12.12-41.56-18.5-14.52-32.33-14.52m0,121.17c-16.64,0-30-6-39.59-17.81-9.4-11.54-14.16-27.45-14.16-47.28s4.76-35.85,14.14-47.46c9.65-11.89,23-17.92,39.61-17.92s29.89,6.05,39.56,18c9.41,11.61,14.19,27.57,14.19,47.41s-4.78,35.69-14.21,47.25c-9.65,11.84-23,17.84-39.54,17.84m0-131c-19.91,0-35.85,6.05-48.7,18.52s-19,27.89-19,47.37,6.18,34.85,18.92,47.25c12.56,12.23,29,18.44,48.77,18.44,20,0,36-6.05,48.74-18.5s19-27.85,19-47.19-6.23-34.8-19.08-47.3-28.78-18.59-48.63-18.59m0,140.88c-22.31,0-40.9-7.1-55.27-21.09s-21.72-32.17-21.72-53.9,7.34-40,21.82-54.06,33-21.13,55.17-21.13,40.63,7.14,55.12,21.22,21.89,32.31,21.89,54-7.32,39.8-21.77,53.84-33,21.15-55.24,21.15"/><path class="cls-1" d="M1331.32,938h43.86l67.1,107.23V965.61q0-12.17-3.58-16.23t-14.08-5.06V938h47.58v6.37q-10.59.88-14.23,5t-3.62,16.28v107.13h-18L1361.25,956v88.78q0,12.46,3.67,16.58t14.28,4.9v6.48h-47.88v-6.48q10.61-.78,14.28-5t3.68-16.53V965.61q0-12.17-3.63-16.28t-14.33-5Z"/><path class="cls-1" d="M1344,1068.1h22.42a15.63,15.63,0,0,1-5-3.62c-3.33-3.76-4.87-10-4.87-19.7V942.6h-12.43a15.24,15.24,0,0,1,5,3.66c3.27,3.7,4.79,9.86,4.79,19.35v79.17c0,9.51-1.58,15.92-4.85,19.61a15.7,15.7,0,0,1-5,3.71m94.91,0h10.76V965.61c0-9.49,1.52-15.65,4.79-19.35a15.37,15.37,0,0,1,5-3.66h-22.33a15.58,15.58,0,0,1,5.07,3.71c3.24,3.67,4.74,9.81,4.74,19.3v95.78L1372.59,942.6h-14.44Zm20.06,9.3h-25.15l-68-105.58v73c0,9.63,1.76,12.65,2.51,13.5.91,1,3.56,2.8,11.12,3.35l4.32.31v15.46h-57.16v-15.46l4.32-.31c7.54-.55,10.19-2.37,11.1-3.38s2.53-3.91,2.53-13.47V965.61c0-9.4-1.73-12.36-2.47-13.21-.89-1-3.55-2.8-11.21-3.44l-4.27-.34V933.3h51.08l59.87,95.67V965.61c0-9.4-1.69-12.32-2.42-13.16s-3.19-2.76-11-3.49l-4.21-.4V933.3h56.87v15.32l-4.27.34c-7.57.64-10.21,2.42-11.1,3.44-.74.85-2.47,3.81-2.47,13.21Z"/><path class="cls-1" d="M1689.25,944.32l3.14-6.37h6.86l11.87,35.51-7.06,2.06q-8.82-15-21.09-23.2a45.89,45.89,0,0,0-25.9-8.19q-12.94,0-21,6.08t-8,15.6q0,15.3,44.15,26l2.65.59c1.17.26,2.91.65,5.2,1.18q20.3,4.8,28.15,11.47a32.63,32.63,0,0,1,9,11.68,34.6,34.6,0,0,1,3.1,14.61q0,18.15-15.46,30.91T1667.28,1075a75.55,75.55,0,0,1-21.39-2.9,80.48,80.48,0,0,1-20-9.17l-4.22,9.81h-7L1602,1026.53l7.37-2.25q9.8,19.82,24.42,30.31a54.09,54.09,0,0,0,32.28,10.5q15,0,24.87-8.48t9.85-20.85q0-16.59-36.1-25.11c-1.7-.46-3-.79-3.82-1q-31.39-7.65-41.94-16.08t-10.55-22.86q0-15.71,13-25.76t33.75-10.05a61,61,0,0,1,16.33,2.3,96.53,96.53,0,0,1,17.71,7.11"/><path class="cls-1" d="M1679.57,945a59.32,59.32,0,0,1,6,3.51A71,71,0,0,1,1704,966.88l-8.12-24.28h-.62l-3.94,8-4.21-2.15c-2.57-1.32-5.11-2.49-7.56-3.52m-55.84,111.19,4.59,2.83a76.32,76.32,0,0,0,18.88,8.67,71.47,71.47,0,0,0,20.08,2.71c13.79,0,25.12-3.82,34.66-11.68,9.24-7.66,13.75-16.6,13.75-27.33a29.91,29.91,0,0,0-2.67-12.67,28.37,28.37,0,0,0-7.72-10.07c-4.69-4-13.52-7.48-26.24-10.5l-7.78-1.74c-32.65-7.91-47.81-17.59-47.81-30.55,0-7.83,3.31-14.34,9.83-19.3,5.47-4.16,12.43-6.5,20.72-7-12.14.2-22.14,3.25-29.73,9.11s-11.23,13-11.23,22.06c0,8.19,2.89,14.48,8.81,19.22,6.45,5.16,20,10.27,40.14,15.19l3.91,1c26.58,6.29,39.56,16,39.56,29.6,0,9.61-3.87,17.83-11.49,24.39-7.39,6.38-16.79,9.61-27.89,9.61a58.85,58.85,0,0,1-35-11.38c-8.76-6.28-16.35-15-22.64-25.93l10.1,35.66Zm43.55,23.51a81,81,0,0,1-22.69-3.07,82.09,82.09,0,0,1-16.52-7l-3.35,7.8h-13.57l-14.81-54,15.46-4.72,1.75,3.52c6.18,12.47,13.92,22.1,23,28.61a49.77,49.77,0,0,0,29.56,9.63c8.94,0,16.08-2.4,21.82-7.36,5.55-4.78,8.25-10.45,8.25-17.34,0-10.65-17.68-17.06-32.52-20.59l-3.84-1c-21.82-5.32-36.14-10.88-43.75-17-8.16-6.54-12.31-15.45-12.31-26.49,0-11.92,5-21.83,14.87-29.44,9.5-7.33,21.8-11,36.58-11a66.5,66.5,0,0,1,17.59,2.47,95.41,95.41,0,0,1,14.34,5.4l2.38-4.82h13.08l14.48,43.27L1701.88,981l-1.83-3.13c-5.51-9.37-12.13-16.66-19.67-21.69-14.21-9.51-32.2-9.36-41.45-2.27-4.14,3.14-6.16,7-6.16,11.88,0,3.51,4,12.61,40.6,21.48l7.8,1.76c14.39,3.4,24.24,7.47,30.11,12.45a37.37,37.37,0,0,1,10.21,13.3,39.38,39.38,0,0,1,3.51,16.54c0,13.5-5.77,25.11-17.14,34.48-11.1,9.18-24.77,13.83-40.58,13.83"/><path class="cls-1" d="M1761.33,938h113l13.25,35.12-6.18,2.85q-12.48-15.21-27.21-22.27t-34-7.07q-11.58,0-16,3.92t-4.43,15.11v30.61h13.28q13.18,0,18.35-5.05t6.83-19.67h7v59.06h-7q-1.66-14.62-6.78-19.57t-18.4-5h-13.28v39.34q0,11.69,5,15.5t18.51,3.83q19.34,0,34.46-8.39t31.14-28.2l5.59,2.45-17.08,42.18h-116v-6.48q10.5-.78,14.12-4.9t3.64-16.58V965.61q0-12.25-3.59-16.33t-14.17-5Z"/><path class="cls-1" d="M1831.86,942.6a77.51,77.51,0,0,1,24.35,6.85,81.71,81.71,0,0,1,24.51,18.61l-9.61-25.46ZM1774,1068.1H1810a21.24,21.24,0,0,1-8.13-3.53c-4.56-3.54-6.77-9.81-6.77-19.21v-44h17.93c10.2,0,17.27,2,21.63,6.27,2.49,2.42,4.43,5.92,5.87,10.61V983.8c-1.44,4.69-3.4,8.23-5.89,10.68-4.44,4.31-11.49,6.4-21.61,6.4h-17.93V965.61c0-8.92,2-15,6-18.57,2.45-2.18,5.86-3.66,10.32-4.44h-37.35a15,15,0,0,1,4.89,3.6c3.25,3.69,4.76,9.85,4.76,19.41v79.17c0,9.69-1.52,15.92-4.78,19.66a15.88,15.88,0,0,1-5,3.66m64,0h36.27l12.08-29.84c-8.94,10-17.77,17.37-26.35,22.11a69.8,69.8,0,0,1-22,7.73m42.55,9.3H1756.67v-15.46l4.3-.31c7.51-.55,10.11-2.33,11-3.33.72-.85,2.47-3.87,2.47-13.52V965.61c0-9.47-1.71-12.43-2.44-13.27s-3.19-2.72-11.06-3.38l-4.27-.34V933.3h120.87l15.94,42.19-13.41,6.15-2.27-2.78c-7.83-9.54-16.46-16.61-25.62-21s-19.92-6.62-32-6.62c-8.54,0-11.75,1.73-12.92,2.75s-2.85,3.72-2.85,11.63v26h8.63c9.31,0,13.34-2,15.08-3.73s4.26-6.18,5.47-16.88l.46-4.13h15.79v68.37h-15.79l-.46-4.13c-1.29-11.27-3.94-15.34-5.41-16.77-1.71-1.66-5.73-3.64-15.14-3.64h-8.63v34.69c0,6.05,1.13,10.27,3.16,11.85,1.37,1,5.25,2.84,15.67,2.84,12,0,22.87-2.64,32.2-7.82,9.48-5.25,19.49-14.35,29.78-27.06l2.23-2.76,13,5.69Z"/><path class="cls-1" d="M1972.32,1001.62H1992q15.9,0,22.13-1a32.34,32.34,0,0,0,10.45-3.39,23.5,23.5,0,0,0,9.22-9.56,28.84,28.84,0,0,0,3.43-14q0-13.92-9.61-20.49t-30.42-6.58q-16.08,0-20.5,3t-4.41,15.06ZM1934.15,938h66.33q28.53,0,43.11,8.48t14.57,25.07q0,14.32-8.93,23.45t-26.68,12.85l25.6,37.57q7.36,11,13.34,15.69a25,25,0,0,0,12.76,5.5v6.18h-32.18l-42.58-62.49h-27.17v34.53q0,12.46,3.63,16.58t14.12,4.9v6.48h-55.92v-6.48q10.5-.78,14.13-4.9t3.63-16.58V965.61q0-12.25-3.58-16.33t-14.18-5Z"/><path class="cls-1" d="M1977,997H1992c10.29,0,17.46-.32,21.35-1a27.38,27.38,0,0,0,9-2.85,18.89,18.89,0,0,0,7.38-7.71,24,24,0,0,0,2.87-11.77c0-7.72-2.49-13.18-7.58-16.66-5.58-3.82-14.92-5.76-27.78-5.76-13.61,0-17.14,1.67-17.88,2.18-.26.16-2.38,1.87-2.38,11.21Zm36.25-53.88c7.07,1.19,12.7,3.26,17,6.24,7.7,5.27,11.62,13.44,11.62,24.33a33.41,33.41,0,0,1-4,16.21,28.17,28.17,0,0,1-11,11.39,26.5,26.5,0,0,1-3.17,1.51c9.82-2.33,17.27-6,22.19-11.07,5.11-5.21,7.6-11.83,7.6-20.2,0-9.36-4-16.25-12.25-21-6.71-3.9-16.08-6.36-28-7.36m-66.44,125h30.64a15.5,15.5,0,0,1-5-3.64c-3.29-3.74-4.8-10-4.8-19.68V964.63c0-9.92,2.06-15.92,6.45-18.92,2.2-1.49,5.46-2.51,10.09-3.11h-37.29a15,15,0,0,1,4.89,3.6c3.25,3.69,4.76,9.85,4.76,19.41v79.17c0,9.69-1.53,15.92-4.78,19.66a15.92,15.92,0,0,1-5,3.66m97.73,0h19.28a33.67,33.67,0,0,1-5.2-3.38c-4.43-3.51-9.12-9-14.31-16.78l-29.19-42.79a.58.58,0,0,0-.18,0,101.67,101.67,0,0,1-12.59,1Zm34.38,9.3h-39.28L1997,1014.91H1977v29.87c0,9.67,1.72,12.69,2.47,13.52.87,1,3.49,2.78,11,3.33l4.31.31v15.46H1929.5v-15.46l4.3-.31c7.51-.55,10.11-2.33,11-3.33.72-.85,2.47-3.87,2.47-13.52V965.61c0-9.47-1.71-12.43-2.44-13.27s-3.2-2.72-11.06-3.38l-4.27-.34V933.3h71c20.08,0,35,3,45.47,9.12,11.19,6.51,16.86,16.3,16.86,29.08,0,10.77-3.45,19.77-10.25,26.71-5.38,5.49-12.9,9.68-22.4,12.48l21.86,32.06c4.6,6.88,8.76,11.81,12.37,14.66a20.7,20.7,0,0,0,10.41,4.54l4.11.48Z"/><path class="cls-1" d="M2098.75,938h55.92v6.57c-6,.78-10.29,2-13,3.48s-4.07,3.62-4.07,6.23a15.84,15.84,0,0,0,.59,3.88,46.37,46.37,0,0,0,1.76,5.35l35.22,89.37,35.12-84.37a61.64,61.64,0,0,0,2.26-6.48,18.26,18.26,0,0,0,.78-4.61,9.26,9.26,0,0,0-3.93-8q-3.92-2.83-14.61-4.9V938h51.7v6.57q-9.42,2.06-14.28,5.84T2222.75,965l-45.62,110.56h-13.64l-45.42-112.92q-3.43-8.53-7.55-12.31t-11.77-5.84Z"/><path class="cls-1" d="M2166.63,1070.93h7.4l44.41-107.68c3.43-8.11,7-13.52,10.92-16.56a29.75,29.75,0,0,1,7.32-4.09H2206a24.59,24.59,0,0,1,6.17,3,14,14,0,0,1,5.86,11.74,22.79,22.79,0,0,1-.95,5.81,67.69,67.69,0,0,1-2.43,7l-39.56,95-39.42-100.07a48,48,0,0,1-2-5.94,20.52,20.52,0,0,1-.73-5c0-3,1.11-7.25,6.42-10.26a22.11,22.11,0,0,1,2.92-1.37h-35.19a25.54,25.54,0,0,1,6.57,4.35c3.29,3,6.16,7.57,8.73,14Zm13.61,9.3h-19.89l-46.6-115.82c-2.5-6.25-4.85-9.21-6.37-10.61-2.18-2-5.49-3.62-9.83-4.78l-3.46-.91V933.3h65.24v15.32l-4,.53c-6.64.87-9.83,2.05-11.33,2.9-1.7,1-1.7,1.73-1.7,2.18a10.56,10.56,0,0,0,.45,2.69,37.17,37.17,0,0,0,1.58,4.82l31,78.7L2206,966.68a51.75,51.75,0,0,0,2-5.94,13.36,13.36,0,0,0,.62-3.36,4.66,4.66,0,0,0-2-4.2c-1.14-.84-4.34-2.47-12.75-4.09l-3.78-.71V933.3h61v15l-3.67.8c-5.56,1.22-9.74,2.87-12.4,5-1.79,1.38-4.63,4.73-8,12.81Z"/><path class="cls-1" d="M2276,938h56.7v6.37q-10.68,1-14.27,5t-3.58,16.28v79.17q0,12.46,3.63,16.58t14.22,4.9v6.48H2276v-6.48q10.8-1,14.47-5t3.68-16.43V965.61q0-12.25-3.63-16.28t-14.52-5Z"/><path class="cls-1" d="M2288.55,1068.1H2320a15.13,15.13,0,0,1-5-3.66c-3.27-3.74-4.79-10-4.79-19.66V965.61c0-9.56,1.51-15.7,4.74-19.37a15.7,15.7,0,0,1,5.05-3.64h-31.09a15.33,15.33,0,0,1,5.07,3.62c3.31,3.67,4.83,9.83,4.83,19.39v79.17c0,9.65-1.56,15.87-4.88,19.55a16,16,0,0,1-5.36,3.77m48.8,9.3h-66V1062l4.23-.38c7.81-.71,10.52-2.51,11.43-3.53.75-.83,2.49-3.78,2.49-13.32V965.61c0-9.43-1.71-12.36-2.43-13.18-.9-1-3.58-2.76-11.49-3.47l-4.23-.38V933.3h66v15.28l-4.23.38c-7.72.71-10.34,2.47-11.23,3.46-.71.81-2.4,3.74-2.4,13.19v79.17c0,9.65,1.75,12.67,2.49,13.52.87,1,3.49,2.78,11.05,3.33l4.32.31Z"/><path class="cls-1" d="M2484.53,948.15l4.41-10.2h5.5l10.4,48.36-5.79.89q-10-21.39-23.4-32.62t-28.89-11.24q-22,0-35.42,16.83t-13.44,44.49q0,28.16,13.35,44.78t35.9,16.63a60.79,60.79,0,0,0,30.17-7.65q13.68-7.65,23.88-22.66l7.66,4.81q-11.49,17.36-27.32,26.09t-36,8.73a75.1,75.1,0,0,1-24.38-4.17,70.53,70.53,0,0,1-21.43-11.53,64.19,64.19,0,0,1-18.74-23.84,73,73,0,0,1-6.58-31q0-30.33,19.83-50T2445,935.11a62.16,62.16,0,0,1,19.63,3.18,88.11,88.11,0,0,1,19.91,9.86"/><path class="cls-1" d="M2473.33,947a60,60,0,0,1,5.31,4c6.92,5.79,13.23,13.55,18.82,23.13l-6.34-29.53L2486.61,955l-4.61-3a98.39,98.39,0,0,0-8.67-5m-42-6.12a61.54,61.54,0,0,0-33.74,17.22c-12.42,12.34-18.45,27.64-18.45,46.74a68.65,68.65,0,0,0,6.14,29,59.84,59.84,0,0,0,17.41,22.15,65.7,65.7,0,0,0,20,10.77,68.1,68.1,0,0,0,23.72,3.91c-16.1-.18-29.15-6.36-38.8-18.37s-14.37-27.95-14.37-47.7c0-19.43,4.87-35.38,14.46-47.39a47.33,47.33,0,0,1,23.59-16.37M2445.58,1080a80.26,80.26,0,0,1-25.89-4.41,75.38,75.38,0,0,1-22.83-12.29,69,69,0,0,1-20-25.53,77.63,77.63,0,0,1-7-32.94c0-21.41,7.12-39.34,21.17-53.33s32.23-21.08,54-21.08a67.09,67.09,0,0,1,21.08,3.43,87.88,87.88,0,0,1,16.3,7.49l3.51-8.07h12.32l12.21,56.86-14.12,2.16-1.47-3.16c-6.34-13.56-13.79-24-22.17-31-8.14-6.81-16.61-10.14-25.9-10.14-13.28,0-23.69,4.93-31.78,15.08-8.25,10.32-12.43,24.32-12.43,41.58,0,17.57,4.15,31.67,12.32,41.88,8.05,10,18.61,14.89,32.28,14.89a56.46,56.46,0,0,0,27.89-7.07c8.45-4.71,15.95-11.85,22.31-21.23l2.53-3.7,15.48,9.74-2.62,4c-8,12.17-17.79,21.46-29,27.6s-24.06,9.3-38.2,9.3"/><path class="cls-1" d="M2549.05,938h113l13.26,35.12-6.19,2.85q-12.47-15.21-27.2-22.27t-34-7.07q-11.59,0-16,3.92t-4.42,15.11v30.61h13.28q13.17,0,18.34-5.05T2626,971.5h7v59.06h-7q-1.66-14.62-6.78-19.57t-18.39-5h-13.28v39.34q0,11.69,5,15.5t18.51,3.83q19.35,0,34.47-8.39t31.13-28.2l5.6,2.45-17.08,42.18h-116v-6.48q10.5-.78,14.13-4.9t3.63-16.58V965.61q0-12.25-3.58-16.33t-14.18-5Z"/><path class="cls-1" d="M2619.59,942.6a77.39,77.39,0,0,1,24.33,6.85A82.08,82.08,0,0,1,2668.44,968l-9.6-25.44Zm-57.89,125.5h36.05a21.12,21.12,0,0,1-8.12-3.53c-4.56-3.54-6.78-9.81-6.78-19.21v-44h17.93c10.22,0,17.3,2,21.65,6.29,2.47,2.38,4.41,5.88,5.85,10.57V983.82c-1.44,4.7-3.4,8.23-5.87,10.66-4.43,4.31-11.49,6.4-21.63,6.4h-17.93V965.61c0-8.94,2-15,6-18.59,2.44-2.16,5.86-3.64,10.31-4.42h-37.34a15.05,15.05,0,0,1,4.88,3.6c3.24,3.67,4.75,9.83,4.75,19.41v79.17c0,9.7-1.53,16-4.8,19.66a15.15,15.15,0,0,1-5,3.66m64,0H2662l12.08-29.82c-8.92,9.94-17.75,17.35-26.33,22.09a70,70,0,0,1-22,7.73m42.58,9.3H2544.4v-15.46l4.31-.31c7.48-.55,10.08-2.33,11-3.33.75-.85,2.47-3.85,2.47-13.52V965.61c0-9.49-1.69-12.43-2.41-13.27s-3.2-2.72-11.07-3.38l-4.27-.34V933.3h120.88l15.91,42.19-13.39,6.15-2.27-2.78c-7.85-9.56-16.46-16.63-25.64-21s-19.9-6.62-31.94-6.62c-8.55,0-11.76,1.73-12.92,2.75s-2.88,3.72-2.88,11.63v26h8.63c9.33,0,13.36-2,15.11-3.73s4.23-6.16,5.47-16.88l.47-4.13h15.75v68.37h-15.75l-.47-4.13c-1.26-10.72-3.64-15-5.42-16.75s-5.72-3.66-15.16-3.66h-8.63v34.69c0,6.05,1.13,10.27,3.17,11.85,1.36,1,5.25,2.84,15.66,2.84,12,0,22.88-2.64,32.22-7.82s19.5-14.35,29.76-27.06l2.24-2.76,13,5.69Z"/><path class="cls-1" d="M2810.57,944.32l3.14-6.37h6.87l11.87,35.51-7.07,2.06q-8.82-15-21.08-23.2a45.92,45.92,0,0,0-25.91-8.19q-12.94,0-20.94,6.08t-8,15.6q0,15.3,44.15,26l2.65.59c1.17.26,2.91.65,5.2,1.18q20.31,4.8,28.15,11.47a32.66,32.66,0,0,1,9,11.68,34.74,34.74,0,0,1,3.09,14.61q0,18.15-15.45,30.91T2788.6,1075a75.6,75.6,0,0,1-21.39-2.9,80.48,80.48,0,0,1-20-9.17l-4.22,9.81h-7l-12.65-46.21,7.36-2.25q9.8,19.82,24.42,30.31a54.11,54.11,0,0,0,32.28,10.5q15,0,24.87-8.48t9.86-20.85q0-16.59-36.1-25.11c-1.71-.46-3-.79-3.83-1q-31.39-7.65-41.94-16.08t-10.54-22.86q0-15.71,13-25.76t33.75-10.05a61.12,61.12,0,0,1,16.34,2.3,96.17,96.17,0,0,1,17.7,7.11"/><path class="cls-1" d="M2800.89,945a57.92,57.92,0,0,1,6,3.51,71.19,71.19,0,0,1,18.48,18.42l-8.12-24.28h-.62l-4,8-4.21-2.15c-2.56-1.32-5.09-2.49-7.56-3.52m-55.84,111.19,4.6,2.83a76,76,0,0,0,18.88,8.67,71.47,71.47,0,0,0,20.08,2.71c13.79,0,25.11-3.82,34.65-11.68,9.25-7.66,13.75-16.6,13.75-27.33a30.26,30.26,0,0,0-2.67-12.69,28.47,28.47,0,0,0-7.72-10c-4.69-4-13.52-7.48-26.24-10.5l-7.78-1.74c-32.65-7.91-47.81-17.59-47.81-30.55,0-7.83,3.31-14.34,9.83-19.3,5.47-4.16,12.43-6.5,20.72-7-12.14.2-22.13,3.25-29.73,9.11s-11.23,13-11.23,22.06c0,8.17,2.87,14.48,8.8,19.22,6.45,5.16,20,10.27,40.16,15.19l3.9,1c26.59,6.29,39.56,16,39.56,29.6,0,9.61-3.87,17.83-11.48,24.39-7.4,6.38-16.79,9.61-27.9,9.61a58.93,58.93,0,0,1-35-11.38c-8.76-6.28-16.36-15-22.63-25.93l10.11,35.66Zm43.56,23.51a81.14,81.14,0,0,1-22.7-3.07,82.09,82.09,0,0,1-16.52-7l-3.34,7.8h-13.58l-14.81-54,15.47-4.72,1.74,3.52c6.18,12.47,13.9,22.1,23,28.61a49.25,49.25,0,0,0,29.58,9.63c8.95,0,16.09-2.4,21.83-7.36,5.54-4.78,8.25-10.45,8.25-17.34,0-10.65-17.68-17.06-32.53-20.59l-3.83-1c-21.83-5.32-36.15-10.86-43.78-17-8.16-6.54-12.28-15.46-12.28-26.49,0-11.92,5-21.83,14.86-29.44,9.51-7.33,21.81-11,36.58-11a66.08,66.08,0,0,1,17.57,2.47,95.6,95.6,0,0,1,14.36,5.4l2.38-4.82h13.08l14.49,43.27L2823.2,981l-1.83-3.13c-5.51-9.37-12.12-16.66-19.66-21.69-14.23-9.51-32.18-9.36-41.45-2.27-4.14,3.14-6.16,7-6.16,11.88,0,3.51,4,12.61,40.59,21.48l7.8,1.76c14.39,3.4,24.24,7.47,30.11,12.45a37.25,37.25,0,0,1,10.21,13.3,39.56,39.56,0,0,1,3.51,16.54c0,13.5-5.76,25.11-17.14,34.48-11.1,9.18-24.77,13.83-40.57,13.83"/></svg>