<?xml version="1.0" encoding="utf-8"?>
<!-- Generator: Adobe Illustrator 26.3.1, SVG Export Plug-In . SVG Version: 6.00 Build 0)  -->
<svg version="1.1" id="Layer_2" xmlns="http://www.w3.org/2000/svg" xmlns:xlink="http://www.w3.org/1999/xlink" x="0px" y="0px"
	 viewBox="0 0 3456 1728" style="enable-background:new 0 0 3456 1728;" xml:space="preserve">
<style type="text/css">
	.st0{fill:#DBB454;}
</style>
<g>
	<path class="st0" d="M818.3,885.8c-34.9,32.4-81,48.5-138.3,48.5c-24.8,0-48.8-3-72-9.2c-23.2-6.1-45.6-15.2-67-27.2l-8.3,31.8
		h-45.8l-59.2-186.2l57.8-19.9c22.4,44.5,49.7,78.9,82.1,103.2c32.4,24.3,66.6,36.5,102.7,36.5c25.5,0,46.9-6.4,64.3-19.3
		c17.3-12.9,26-28.1,26-45.7c0-26.5-36.4-48.9-109.3-67.2c-9.6-2.2-17.1-4-22.4-5.4c-35.6-8.9-63.9-16.9-84.8-24
		c-20.9-7.1-35.8-13.6-44.4-19.7c-18.1-12.5-32-28.3-41.7-47.5c-9.7-19.1-14.6-40.2-14.6-63.3c0-45.7,16.8-83.6,50.4-113.7
		c33.5-30.1,76.2-45.1,127.9-45.1c21.4,0,41.8,2.9,61.2,8.7c19.4,5.7,38.2,14.4,56.5,26l10.1-26h46.6l42.9,148.7l-51.6,18.4
		c-18.3-33.2-41.1-59.2-68.4-77.8c-27.3-18.6-56-28-86.1-28c-22.9,0-41.1,4.8-54.9,14.4c-13.7,9.6-20.6,22.2-20.6,37.6
		c0,25.5,42.1,47.9,126.4,67.1c12,2.9,21.2,5.2,27.4,6.9c60.2,14.4,101.8,32.9,124.9,55.4c23.1,22.5,34.7,53.7,34.7,93.7
		C870.7,810.6,853.2,853.4,818.3,885.8 M932.1,323.8H366.2c-33.9,0-61.4,27.5-61.4,61.3v576.4c0,33.9,27.5,61.3,61.4,61.3h565.9
		c33.9,0,61.4-27.5,61.4-61.3V385.1C993.5,351.2,966.1,323.8,932.1,323.8"/>
	<path class="st0" d="M1542.6,923.1h-423.8v-61.4c22.6-0.7,37.9-6.2,45.8-16.4c8-10.2,11.9-35.5,11.9-76V577.3
		c0-40.4-4-65.8-11.9-76.2c-7.9-10.3-23.2-15.8-45.8-16.2v-61.3h413.3l67.2,150.5l-45.9,24.5c-26.5-38.5-55.5-67.3-87.1-86.3
		c-31.7-19-66.4-28.5-104.1-28.5c-21.9,0-36.7,3.8-44.2,11.4c-7.6,7.6-11.4,25.1-11.4,52.5v71.5h23.8c25.8,0,43.1-5,52-15
		c8.9-9.9,14.2-30.8,15.9-62.6h52.7v225.6h-52.7c-3.3-29.8-10.4-51.4-21.1-64.6c-10.7-13.3-26.3-19.9-46.7-19.9h-23.8v117
		c0,26.9,3.9,44.3,11.7,52c7.8,7.7,22.9,11.6,45.3,11.6c37.8,0,75-12.1,111.7-36.4c36.7-24.3,68.3-58,94.8-101.1l48,26L1542.6,923.1
		z M1651.3,323.8h-565.9c-33.9,0-61.4,27.5-61.4,61.3v576.4c0,33.9,27.5,61.3,61.4,61.3h565.9c33.9,0,61.4-27.5,61.4-61.3V385.1
		C1712.7,351.2,1685.2,323.8,1651.3,323.8"/>
	<path class="st0" d="M2261.8,923.1H1838v-61.4c22.6-0.7,37.9-6.2,45.8-16.4c8-10.2,11.9-35.5,11.9-76V577.3
		c0-40.4-4-65.8-11.9-76.2c-7.9-10.3-23.2-15.8-45.8-16.2v-61.3h413.3l67.2,150.5l-45.9,24.5c-26.5-38.5-55.5-67.3-87.1-86.3
		c-31.7-19-66.4-28.5-104.1-28.5c-21.9,0-36.7,3.8-44.2,11.4c-7.6,7.6-11.4,25.1-11.4,52.5v71.5h23.8c25.8,0,43.1-5,52-15
		c8.9-9.9,14.2-30.8,15.9-62.6h52.7v225.6h-52.7c-3.3-29.8-10.4-51.4-21.1-64.6c-10.7-13.3-26.3-19.9-46.7-19.9h-23.8v117
		c0,26.9,3.9,44.3,11.7,52c7.8,7.7,22.9,11.6,45.3,11.6c37.8,0,75-12.1,111.7-36.4c36.7-24.3,68.3-58,94.8-101.1l48,26L2261.8,923.1
		z M2370.6,323.8h-565.9c-33.9,0-61.4,27.5-61.4,61.3v576.4c0,33.9,27.5,61.3,61.4,61.3h565.9c33.9,0,61.4-27.5,61.4-61.3V385.1
		C2431.9,351.2,2404.4,323.8,2370.6,323.8"/>
	<path class="st0" d="M3092.6,923.1h-269v-60c17.3-0.7,30.2-3.2,38.4-7.4c8.3-4.2,12.5-10.4,12.5-18.6c0-5-1.2-10.5-3.6-16.4
		c-2.4-5.9-7.8-15.1-16.2-27.6l-75.5-114.8l-66.4,52.7v39.7c0,39.7,4.2,64.8,12.6,75.3c8.4,10.5,24.7,16.2,48.7,17.1v60h-253.1V861
		c24.1-1,40.3-6.6,48.7-16.9c8.4-10.3,12.6-35.3,12.6-74.7V577.3c0-39.4-4.2-64.4-12.6-74.9c-8.4-10.5-24.7-16.1-48.7-16.8v-62.1
		h253.1v60.3c-24.1,1-40.3,6.7-48.7,17.2c-8.4,10.5-12.6,35.3-12.6,74.5v68.2l119.9-100c13-10.6,22.4-19.2,28.2-25.8
		c5.8-6.6,8.6-12,8.6-16.1c0-6.7-2.7-11.6-8.1-14.5c-5.4-2.9-14.5-4.3-27.3-4.3h-10.5v-59.6h239.7v62.1
		c-24.5,4.3-46.3,10.9-65.2,19.7c-18.9,8.8-39.7,22.7-62.3,41.7l-64.3,53.8l114.1,179c16.9,26.2,34.1,46.3,51.6,60.3
		c17.6,14,34.5,20.9,50.9,20.9h4.3V923.1z M3089.8,323.8h-565.9c-33.9,0-61.4,27.5-61.4,61.3v576.4c0,33.9,27.5,61.3,61.4,61.3
		h565.9c33.9,0,61.4-27.5,61.4-61.3V385.1C3151.2,351.2,3123.7,323.8,3089.8,323.8"/>
	<path class="st0" d="M304.8,1072.7h66v16.2c-6.3,0.2-10.5,1.7-12.7,4.5c-2.2,2.8-3.3,9.3-3.3,19.4v50.1c0,10.2,1.1,16.6,3.2,19.4
		c2.2,2.8,6.4,4.3,12.8,4.5v16.2h-66v-16.2c6.3-0.2,10.6-1.8,12.8-4.5c2.2-2.8,3.2-9.2,3.2-19.4v-50.1c0-10.2-1.1-16.7-3.2-19.4
		c-2.2-2.7-6.4-4.2-12.8-4.5V1072.7z"/>
	<path class="st0" d="M477.6,1072.7h55.3l45.5,74.5v-34.9c0-10.4-1-16.9-3.1-19.6c-2.1-2.7-6.1-4.2-12-4.5v-15.5h48.4v16
		c-6.1,0.2-10.2,1.6-12.3,4.4c-2.1,2.7-3.2,9.3-3.2,19.7v90.2h-23.9l-61.6-100.2v60.5c0,10.3,1.1,16.9,3.2,19.6
		c2.1,2.7,6.1,4.2,12.1,4.5v15.6h-48.4v-16c6.1-0.2,10.2-1.7,12.3-4.5c2.1-2.7,3.2-9.3,3.2-19.6v-50.1c0-10.4-1.1-16.9-3.2-19.7
		c-2.1-2.8-6.2-4.2-12.3-4.4V1072.7z"/>
	<path class="st0" d="M725.5,1072.7H833l14.9,39.8l-12.5,4.9c-5.1-9.9-10.4-16.9-16-20.9c-5.6-4.1-12.7-6.1-21.1-6.1h-2v72.5
		c0,10.2,1.1,16.7,3.2,19.5c2.1,2.8,6.2,4.2,12.2,4.4v16.2h-64.8v-16.2c6-0.2,10.1-1.6,12.2-4.3s3.2-9.2,3.2-19.6v-72.5h-2
		c-8.5,0-15.5,2-21.2,6.1c-5.6,4-11,11-16,20.9l-12.5-4.9L725.5,1072.7z"/>
	<path class="st0" d="M948.2,1072.7h107.8l17.5,39.2l-12,6.4c-6.9-10-14.5-17.5-22.7-22.5c-8.3-5-17.3-7.4-27.2-7.4
		c-5.7,0-9.6,1-11.5,3c-2,2-3,6.5-3,13.7v18.6h6.2c6.7,0,11.2-1.3,13.6-3.9c2.3-2.6,3.7-8,4.1-16.3h13.7v58.8H1021
		c-0.9-7.8-2.7-13.4-5.5-16.8c-2.8-3.5-6.9-5.2-12.2-5.2h-6.2v30.5c0,7,1,11.5,3.1,13.6c2,2,6,3,11.8,3c9.9,0,19.6-3.2,29.1-9.5
		c9.6-6.3,17.8-15.1,24.7-26.4l12.5,6.8l-19.7,44.7H948.2v-16c5.9-0.2,9.9-1.6,12-4.3c2.1-2.7,3.1-9.3,3.1-19.8v-50.1
		c0-10.5-1-17.2-3.1-19.9c-2.1-2.7-6.1-4.1-12-4.2V1072.7z"/>
	<path class="st0" d="M1233.5,1129c0.9,0.1,1.8,0.1,2.8,0.1c1,0,2.5,0,4.5,0c12.2,0,21.4-1.7,27.4-5.1c6-3.4,9-8.5,9-15.3
		c0-6.2-2.5-11.1-7.6-14.6c-5.1-3.5-12-5.3-20.7-5.3c-6.1,0-10.3,1-12.3,3c-2.1,2-3.1,6.4-3.1,13.2V1129z M1183.7,1072.7h74.6
		c17.9,0,31.4,2.9,40.2,8.8c8.9,5.9,13.3,14.7,13.3,26.6c0,8.9-2.4,16.2-7.3,21.8c-4.9,5.6-12.5,9.9-22.7,12.8l26.2,32.6
		c3.3,4.1,6.5,7,9.8,8.7c3.3,1.7,7.2,2.8,11.9,3.2v15.8H1288l-41.4-56.5h-13.1v16.4c0,10.3,1.1,16.8,3.2,19.5
		c2.1,2.7,6.3,4.2,12.6,4.4v16.2h-65.6v-16.2c6.3-0.2,10.5-1.7,12.6-4.4c2.1-2.7,3.2-9.2,3.2-19.5v-50.1c0-10.4-1.1-16.9-3.2-19.6
		c-2.1-2.7-6.3-4.1-12.6-4.3V1072.7z"/>
	<path class="st0" d="M1429.9,1072.7h55.3l45.5,74.5v-34.9c0-10.4-1-16.9-3.1-19.6c-2.1-2.7-6.1-4.2-12-4.5v-15.5h48.4v16
		c-6.1,0.2-10.2,1.6-12.3,4.4c-2.1,2.7-3.2,9.3-3.2,19.7v90.2h-23.9l-61.6-100.2v60.5c0,10.3,1.1,16.9,3.2,19.6
		c2.1,2.7,6.1,4.2,12.1,4.5v15.6h-48.4v-16c6.1-0.2,10.2-1.7,12.3-4.5c2.1-2.7,3.2-9.3,3.2-19.6v-50.1c0-10.4-1.1-16.9-3.2-19.7
		c-2.1-2.8-6.2-4.2-12.3-4.4V1072.7z"/>
	<path class="st0" d="M1729.5,1102.5l-14,37.6h26.4L1729.5,1102.5z M1721.5,1072.7h29.7l36.4,96.6l0.2,0.7
		c4,10.4,9.8,16.1,17.5,16.9v16H1742v-15.6h1.6c4.6,0,7.8-0.6,9.7-1.7c1.9-1.2,2.8-3.1,2.8-5.8c0-1.2-0.1-2.2-0.2-3.2
		c-0.2-0.9-0.4-1.8-0.7-2.6l-6.8-18h-39.9l-5.6,18c-0.2,0.7-0.3,1.5-0.4,2.1c-0.1,0.7-0.1,1.2-0.1,1.7c0,3.3,1.1,5.7,3.2,7.1
		c2.1,1.4,5.8,2.2,11.2,2.3v15.6h-54.3v-16c9.1-1.3,16.1-8,21-20c0.4-1,0.8-1.8,0.9-2.4L1721.5,1072.7z"/>
	<path class="st0" d="M1913,1072.7h107.6l14.9,39.8l-12.5,4.9c-5.1-9.9-10.4-16.9-16-20.9c-5.6-4.1-12.7-6.1-21.1-6.1h-2v72.5
		c0,10.2,1.1,16.7,3.2,19.5c2.1,2.8,6.2,4.2,12.2,4.4v16.2h-64.8v-16.2c6-0.2,10.1-1.6,12.2-4.3c2.1-2.7,3.2-9.2,3.2-19.6v-72.5h-2
		c-8.5,0-15.5,2-21.2,6.1c-5.6,4-11,11-16,20.9l-12.5-4.9L1913,1072.7z"/>
	<path class="st0" d="M2136.2,1072.7h66v16.2c-6.3,0.2-10.5,1.7-12.7,4.5c-2.2,2.8-3.3,9.3-3.3,19.4v50.1c0,10.2,1.1,16.6,3.2,19.4
		c2.2,2.8,6.4,4.3,12.8,4.5v16.2h-66v-16.2c6.3-0.2,10.6-1.8,12.8-4.5c2.2-2.8,3.2-9.2,3.2-19.4v-50.1c0-10.2-1.1-16.7-3.2-19.4
		c-2.2-2.7-6.4-4.2-12.8-4.5V1072.7z"/>
	<path class="st0" d="M2381.2,1086.1c-10.8,0-19.2,4.5-25.1,13.6c-6,9-8.9,21.7-8.9,38.1c0,16.3,3,29,8.9,38
		c6,9,14.3,13.5,25.1,13.5c10.8,0,19.2-4.5,25.2-13.6c6-9,9-21.7,9-37.9c0-16.3-3-29-9-38.1
		C2400.4,1090.7,2392,1086.1,2381.2,1086.1 M2381.2,1069.8c21,0,38,6.2,51.1,18.7c13,12.5,19.5,28.9,19.5,49.3
		c0,20.3-6.5,36.8-19.6,49.3c-13.1,12.5-30.1,18.8-51,18.8c-21,0-38-6.3-51-18.8c-13-12.5-19.5-28.9-19.5-49.3
		c0-20.3,6.5-36.8,19.5-49.3C2343.2,1076,2360.2,1069.8,2381.2,1069.8"/>
	<path class="st0" d="M2559.5,1072.7h55.3l45.5,74.5v-34.9c0-10.4-1-16.9-3.1-19.6c-2.1-2.7-6.1-4.2-12-4.5v-15.5h48.4v16
		c-6.1,0.2-10.2,1.6-12.3,4.4c-2.1,2.7-3.2,9.3-3.2,19.7v90.2h-23.9l-61.6-100.2v60.5c0,10.3,1.1,16.9,3.2,19.6
		c2.1,2.7,6.1,4.2,12.1,4.5v15.6h-48.4v-16c6.1-0.2,10.2-1.7,12.3-4.5c2.1-2.7,3.2-9.3,3.2-19.6v-50.1c0-10.4-1.1-16.9-3.2-19.7
		c-2.1-2.8-6.2-4.2-12.3-4.4V1072.7z"/>
	<path class="st0" d="M2859.1,1102.5l-14,37.6h26.4L2859.1,1102.5z M2851.2,1072.7h29.7l36.4,96.6l0.2,0.7
		c4,10.4,9.9,16.1,17.5,16.9v16h-63.4v-15.6h1.6c4.6,0,7.8-0.6,9.7-1.7c1.9-1.2,2.8-3.1,2.8-5.8c0-1.2-0.1-2.2-0.2-3.2
		c-0.2-0.9-0.4-1.8-0.7-2.6l-6.8-18h-39.9l-5.6,18c-0.2,0.7-0.3,1.5-0.4,2.1c-0.1,0.7-0.1,1.2-0.1,1.7c0,3.3,1.1,5.7,3.2,7.1
		c2.1,1.4,5.9,2.2,11.2,2.3v15.6h-54.3v-16c9.1-1.3,16.1-8,21-20c0.4-1,0.8-1.8,0.9-2.4L2851.2,1072.7z"/>
	<path class="st0" d="M3034.2,1072.7h61.7v15.7c-5.5,0.2-9.1,1.6-11.1,4.3c-1.9,2.7-2.9,9.4-2.9,20.1v55.8c0,7.4,0.8,12,2.5,13.9
		c1.7,1.9,5,2.8,10,2.8c8.1,0,15.9-3.1,23.4-9.2c7.5-6.1,14.1-14.8,19.8-26.1l13.5,7.7l-17.3,45.3h-99.7v-15.8
		c5.5-0.1,9.1-1.5,11.1-4.1c1.9-2.6,2.9-9.3,2.9-20.2v-50.1c0-10.9-1-17.7-2.9-20.2c-1.9-2.6-5.6-4-11.1-4.1V1072.7z"/>
	<path class="st0" d="M310.1,1261.7h113l13.3,35.1l-6.2,2.8c-8.3-10.1-17.4-17.6-27.2-22.3c-9.8-4.7-21.1-7.1-34-7.1
		c-7.7,0-13.1,1.3-16,3.9c-3,2.6-4.4,7.7-4.4,15.1v30.6h13.3c8.8,0,14.9-1.7,18.3-5.1c3.4-3.4,5.7-9.9,6.8-19.7h7v59.1h-7
		c-1.1-9.7-3.4-16.3-6.8-19.6c-3.4-3.3-9.5-5-18.4-5h-13.3v39.3c0,7.8,1.7,13,5,15.5c3.3,2.5,9.5,3.8,18.5,3.8
		c12.9,0,24.4-2.8,34.5-8.4c10.1-5.6,20.5-15,31.1-28.2l5.6,2.5l-17.1,42.2h-116v-6.5c7-0.5,11.7-2.2,14.1-4.9
		c2.4-2.7,3.6-8.3,3.6-16.6v-79.2c0-8.2-1.2-13.6-3.6-16.3c-2.4-2.7-7.1-4.4-14.2-5V1261.7z"/>
	<path class="st0" d="M380.7,1266.4c8.9,1.1,17,3.3,24.4,6.9c8.7,4.2,17,10.4,24.5,18.6l-9.6-25.5H380.7z M322.8,1391.9h36.1
		c-3.4-0.8-6.1-2-8.1-3.5c-4.6-3.5-6.8-9.8-6.8-19.2v-44h17.9c10.2,0,17.3,2.1,21.6,6.3c2.5,2.4,4.4,5.9,5.9,10.6v-34.5
		c-1.4,4.7-3.4,8.2-5.9,10.7c-4.4,4.3-11.5,6.4-21.6,6.4h-17.9v-35.3c0-8.9,2-15,6-18.6c2.5-2.2,5.9-3.7,10.3-4.4h-37.3
		c2,1,3.6,2.2,4.9,3.6c3.3,3.7,4.8,9.8,4.8,19.4v79.2c0,9.7-1.5,15.9-4.8,19.7C326.5,1389.7,324.8,1390.9,322.8,1391.9
		 M386.8,1391.9H423l12.1-29.8c-8.9,10-17.8,17.4-26.3,22.1C402.1,1387.9,394.7,1390.5,386.8,1391.9 M429.3,1401.2H305.5v-15.5
		l4.3-0.3c7.5-0.5,10.1-2.3,11-3.3c0.7-0.9,2.5-3.9,2.5-13.5v-79.2c0-9.5-1.7-12.4-2.4-13.3c-0.7-0.8-3.2-2.7-11.1-3.4l-4.3-0.3
		v-15.3h120.9l15.9,42.2l-13.4,6.1l-2.3-2.8c-7.8-9.5-16.5-16.6-25.6-21c-9.2-4.4-19.9-6.6-32-6.6c-8.5,0-11.8,1.7-12.9,2.7
		c-1.1,0.9-2.9,3.7-2.9,11.6v26h8.6c9.3,0,13.3-2,15.1-3.7c1.8-1.8,4.3-6.2,5.5-16.9l0.5-4.1h15.8v68.4h-15.8l-0.5-4.1
		c-1.3-11.3-3.9-15.3-5.4-16.8c-1.7-1.7-5.7-3.6-15.1-3.6h-8.6v34.7c0,6.1,1.1,10.3,3.2,11.8c1.4,1.1,5.3,2.8,15.6,2.8
		c12,0,22.9-2.6,32.2-7.8c9.5-5.3,19.5-14.4,29.8-27.1l2.2-2.8l13,5.7L429.3,1401.2z"/>
	<path class="st0" d="M522.2,1368.2c0,8.1,1.6,13.6,4.9,16.4c3.3,2.8,9,4.3,17.2,4.3c19.5,0,34.8-5.1,46-15.4
		c11.1-10.3,16.7-24.4,16.7-42.5c0-19.4-5.3-34.5-16-45.3c-10.7-10.8-25.6-16.1-44.9-16.1c-8.8,0-14.9,1.4-18.5,4.1
		c-3.6,2.7-5.3,7.8-5.3,15.2V1368.2z M483.2,1261.7h50h7.5c16.7,0,29.1,0.8,37.1,2.4c8,1.6,15.1,4.3,21.4,8
		c10.3,6.1,18.1,14.1,23.4,23.9c5.3,9.9,7.9,21.4,7.9,34.5c0,11.8-2.4,22.3-7.1,31.5c-4.7,9.2-11.5,16.6-20.5,22.4
		c-6.6,4.3-14.2,7.4-22.7,9.3c-8.5,1.9-22,2.8-40.4,2.8h-7.3h-49.4v-6.7c7.3-0.5,12.2-2.2,14.8-4.9c2.5-2.7,3.8-8.3,3.8-16.8v-78.3
		c0-8.4-1.3-13.9-3.8-16.7c-2.5-2.8-7.4-4.5-14.8-5.1V1261.7z"/>
	<path class="st0" d="M546,1274.2c-9.6,0-13.8,1.7-15.7,3.1c-2.9,2.2-3.5,7.4-3.5,11.4v79.4c0,6.5,1.2,11.1,3.3,12.9
		c1.6,1.4,5.4,3.1,14.1,3.1c18.2,0,32.6-4.8,42.8-14.2c10.2-9.4,15.2-22.2,15.2-39.1c0-18.1-4.9-32.2-14.6-42
		C578,1279.2,564,1274.2,546,1274.2 M567.1,1267.4c10.9,2.7,20,7.8,27.2,15.1c11.5,11.6,17.3,27.9,17.3,48.5
		c0,19.3-6.1,34.8-18.2,45.9c-7.3,6.7-16.2,11.4-26.7,14c5-0.4,9.2-1,12.5-1.7c7.9-1.7,15-4.6,21.2-8.6c8.2-5.3,14.6-12.2,18.9-20.6
		c4.4-8.5,6.6-18.3,6.6-29.4c0-12.3-2.5-23.2-7.4-32.3c-4.9-9-12.2-16.5-21.7-22.1c-5.8-3.5-12.5-6-19.9-7.4
		C574.1,1268.1,570.9,1267.7,567.1,1267.4 M495.8,1391.9h35.3c-2.9-0.9-5.2-2.1-7.1-3.8c-4.4-3.8-6.5-10.3-6.5-20v-79.4
		c0-8.9,2.4-15.2,7.2-18.9c2-1.5,4.6-2.7,7.8-3.6h-36.2c2.1,1,3.8,2.2,5.1,3.7c3.4,3.7,5,10.2,5,19.8v78.3c0,9.8-1.6,16.2-5,19.9
		C499.9,1389.6,498.1,1390.9,495.8,1391.9 M539.8,1401.2h-61.3v-15.6l4.3-0.3c8-0.6,10.7-2.4,11.7-3.4c0.7-0.8,2.5-3.9,2.5-13.6
		v-78.3c0-9.7-1.8-12.7-2.6-13.6c-0.9-1-3.7-2.9-11.7-3.5l-4.3-0.3v-15.3h62.1c17.2,0,29.6,0.8,38,2.5c8.4,1.7,16.1,4.6,22.9,8.6
		c11,6.5,19.5,15.2,25.1,25.7c5.7,10.5,8.5,22.9,8.5,36.7c0,12.5-2.5,23.8-7.6,33.6c-5.1,9.8-12.5,18-22.1,24.2
		c-7,4.6-15.2,7.9-24.2,9.9C572.3,1400.2,558.4,1401.2,539.8,1401.2"/>
	<path class="st0" d="M671.6,1261.7h56.5v6.4c-7.4,0.7-12.3,2.3-14.8,5c-2.5,2.7-3.7,8.1-3.7,16.3v64.8c0,13,3,22.2,8.9,27.5
		c6,5.3,15.9,8,29.7,8c13.9,0,23.9-2.7,30-8.1c6.1-5.4,9.1-14.5,9.1-27.2v-64.9c0-8-1.2-13.4-3.7-16.2c-2.5-2.7-7.3-4.4-14.6-5.1
		v-6.4h48.2v6.4c-7.5,0.6-12.4,2.3-14.9,5c-2.5,2.7-3.7,8.2-3.7,16.3v69.2c0,13.7-4.4,23.9-13.1,30.8c-8.8,6.8-21.9,10.2-39.3,10.2
		c-18.4,0-32.4-3.3-41.7-10c-9.4-6.7-14.1-16.6-14.1-29.8v-70.3c0-8.2-1.3-13.6-3.8-16.3c-2.5-2.7-7.5-4.4-15-5V1261.7z"/>
	<path class="st0" d="M684.9,1266.4c2.1,0.9,3.7,2.1,5,3.5c3.4,3.7,5,10.1,5,19.5v70.3c0,11.7,4,20.2,12.1,26
		c8.5,6.1,21.6,9.2,39,9.2c16.3,0,28.6-3.1,36.5-9.3c7.6-6,11.3-14.8,11.3-27.1v-69.2c0-9.5,1.6-15.7,4.9-19.4
		c1.3-1.4,3-2.6,5.1-3.6h-22c2.1,1,3.9,2.2,5.2,3.7c3.3,3.7,4.9,9.9,4.9,19.3v64.9c0,14.1-3.6,24.4-10.7,30.7
		c-7,6.2-17.9,9.3-33.1,9.3c-15.2,0-25.9-3-32.8-9.2c-6.9-6.2-10.5-16.7-10.5-31v-64.7c0-9.6,1.6-15.8,5-19.4c1.3-1.4,3-2.6,5.1-3.6
		H684.9z M746.1,1404.2c-19.4,0-34.3-3.7-44.4-10.9c-10.6-7.6-16-18.9-16-33.6v-70.3c0-9.4-1.8-12.4-2.5-13.2
		c-0.9-1-3.8-2.8-11.9-3.5l-4.3-0.3v-15.3h65.8v15.3l-4.2,0.4c-8.1,0.7-10.9,2.5-11.8,3.5c-0.7,0.8-2.5,3.7-2.5,13.1v64.7
		c0,11.6,2.5,19.7,7.4,24.1c5.1,4.5,14,6.8,26.6,6.8c12.7,0,21.8-2.3,26.9-6.9c5-4.4,7.6-12.4,7.6-23.7v-64.9
		c0-9.3-1.7-12.2-2.5-13.1c-0.9-1-3.6-2.8-11.5-3.5l-4.2-0.4v-15.3h57.5v15.3l-4.3,0.3c-8.1,0.6-10.9,2.5-11.8,3.5
		c-0.8,0.8-2.5,3.8-2.5,13.2v69.2c0,15.1-5,26.7-14.9,34.4C778.8,1400.4,764.6,1404.2,746.1,1404.2"/>
	<path class="st0" d="M968.9,1271.9l4.4-10.2h5.5l10.4,48.4l-5.8,0.9c-6.7-14.3-14.5-25.1-23.4-32.6c-8.9-7.5-18.6-11.2-28.9-11.2
		c-14.6,0-26.5,5.6-35.4,16.8c-9,11.2-13.4,26-13.4,44.5c0,18.8,4.4,33.7,13.3,44.8c8.9,11.1,20.9,16.6,35.9,16.6
		c11,0,21-2.6,30.2-7.7c9.1-5.1,17.1-12.7,23.9-22.7l7.7,4.8c-7.7,11.6-16.8,20.3-27.3,26.1c-10.6,5.8-22.5,8.7-36,8.7
		c-8.1,0-16.2-1.4-24.4-4.2c-8.1-2.8-15.3-6.6-21.4-11.5c-8.1-6.4-14.4-14.4-18.7-23.8c-4.4-9.5-6.6-19.8-6.6-31
		c0-20.2,6.6-36.9,19.8-50c13.2-13.1,30.1-19.7,50.7-19.7c6.7,0,13.2,1.1,19.6,3.2C955.4,1264.2,962,1267.5,968.9,1271.9"/>
	<path class="st0" d="M957.7,1270.8c1.8,1.2,3.6,2.5,5.4,4c6.9,5.8,13.2,13.5,18.8,23.1l-6.4-29.5l-4.5,10.4l-4.6-3
		C963.4,1273.9,960.5,1272.2,957.7,1270.8 M916,1264.6c-13.4,2.2-24.6,7.9-34,17.3c-12.4,12.4-18.5,27.7-18.5,46.7
		c0,10.4,2.1,20.2,6.1,29.1c4.1,8.7,9.9,16.2,17.4,22.1c5.7,4.6,12.5,8.2,20.1,10.8c7.9,2.7,15.9,4.1,23.7,3.9
		c-16.1-0.2-29.1-6.4-38.8-18.4c-9.5-11.9-14.4-27.9-14.4-47.7c0-19.5,4.9-35.4,14.5-47.4C898.6,1272.9,906.6,1267.3,916,1264.6
		 M930,1403.8c-8.6,0-17.3-1.5-25.9-4.4c-8.6-2.9-16.3-7.1-22.8-12.3c-8.6-6.8-15.4-15.4-20.1-25.5c-4.7-10.1-7-21.2-7-32.9
		c0-21.4,7.1-39.3,21.2-53.3c14.1-14,32.2-21.1,54-21.1c7.1,0,14.2,1.2,21.1,3.4c5.3,1.8,10.8,4.3,16.3,7.5l3.5-8.1h12.3l12.2,56.9
		l-14.1,2.2l-1.5-3.2c-6.3-13.6-13.8-24-22.2-31c-8.1-6.8-16.6-10.1-25.9-10.1c-13.3,0-23.7,4.9-31.8,15.1
		c-8.2,10.3-12.4,24.3-12.4,41.6c0,17.6,4.1,31.7,12.3,41.9c8,10,18.6,14.9,32.3,14.9c10.1,0,19.5-2.4,27.9-7.1
		c8.4-4.7,15.9-11.8,22.3-21.2l2.5-3.7l15.5,9.7l-2.6,4c-8,12.2-17.8,21.4-29,27.6C957,1400.7,944.1,1403.8,930,1403.8"/>
	<path class="st0" d="M1091.7,1278.2l-22.1,59.1h44.2L1091.7,1278.2z M1087.1,1261.7h18.5l43.2,113.7c1.7,4.6,4,8.1,6.8,10.3
		c2.8,2.2,6.8,3.6,11.8,4.2v6.7H1113v-6.5h2.4c4.3,0,7.6-0.7,9.8-2.1c2.2-1.4,3.3-3.4,3.3-6.2c0-1.2-0.1-2.5-0.3-3.8
		c-0.2-1.3-0.6-2.6-1-3.9l-10.1-27.4h-50.8l-8.8,23.5c-0.5,1.4-0.9,2.9-1.3,4.7c-0.3,1.7-0.5,3.1-0.5,4.2c0,2.8,1.4,5.2,4.2,7.1
		c2.8,1.9,7.2,3.4,13,4.6v5.8h-51v-6.7c4.4-0.3,8.4-1.6,11.8-4.1c3.4-2.5,6-5.9,7.7-10.1L1087.1,1261.7z"/>
	<path class="st0" d="M1076.3,1332.6h30.8l-15.4-41.1L1076.3,1332.6z M1127.8,1391.9h29.2c-1.5-0.7-2.9-1.5-4.2-2.5
		c-3.5-2.7-6.4-6.9-8.4-12.4l-42-110.6h-10.2l28.4,75.5h-57.7l28.2-75.5h-0.9l-44.6,111c-2,5-5.1,9.1-9.2,12.1
		c-1.3,0.9-2.6,1.7-4,2.4h28.2c-1.3-0.6-2.4-1.2-3.4-1.9c-5.2-3.5-6.3-7.9-6.3-10.9c0-1.3,0.2-2.9,0.6-5c0.4-2,0.9-3.9,1.5-5.5
		l10-26.5h57.3l11.2,30.4c0.6,1.7,1,3.2,1.3,4.8c0.3,1.6,0.4,3.1,0.4,4.6C1133.1,1386.1,1131.2,1389.7,1127.8,1391.9 M1172.1,1401.2
		h-63.8v-15.8h7.1c4.5,0,6.5-0.8,7.3-1.3c0.6-0.4,1.1-0.8,1.1-2.3c0-1-0.1-2-0.3-3c-0.2-1.1-0.5-2.2-0.8-3.2l-8.9-24.2h-44.4
		l-7.7,20.5c-0.5,1.2-0.8,2.5-1.1,3.9c-0.3,1.4-0.4,2.5-0.4,3.3c0,0.5,0,1.7,2.2,3.2c1.5,1,4.8,2.6,11.3,3.9l3.7,0.7v14.3h-60.3
		v-15.7l4.4-0.3c3.6-0.2,6.6-1.3,9.3-3.2c2.7-2,4.7-4.6,6.1-8.1l47-116.8h24.9l44.3,116.7c1.4,3.9,3.2,6.6,5.3,8.2
		c2.2,1.7,5.4,2.7,9.6,3.3l4.1,0.5V1401.2z"/>
	<path class="st0" d="M1203.9,1261.7h101.8l9.8,34.5l-8.4,3.2c-3.8-9.5-9-16.9-15.5-22.3c-6.6-5.4-13.7-8-21.3-8
		c-2.1,0-3.5,0.5-4.1,1.4c-0.7,1-1,3.1-1,6.5v7.9v83.6c0,8.3,1.2,13.8,3.6,16.6c2.4,2.7,7.1,4.4,14.1,4.9v6.5H1227v-6.5
		c7-0.5,11.7-2.2,14.1-4.9c2.4-2.7,3.6-8.3,3.6-16.6V1285v-9c0-2.9-0.3-4.8-0.9-5.6c-0.6-0.8-2-1.2-4.1-1.2c-7.8,0-15,2.7-21.5,8
		c-6.6,5.4-11.7,12.8-15.4,22.3l-8.6-3.2L1203.9,1261.7z"/>
	<path class="st0" d="M1281.6,1266.4c4.5,1.5,8.8,3.9,12.9,7.2c6.1,5,11.2,11.7,15.1,19.9l0.3-0.1l-7.7-27.1H1281.6z M1199.7,1293.4
		l0.5,0.2c3.8-8.2,8.9-14.9,15-20c4.1-3.3,8.4-5.7,12.9-7.2h-20.7L1199.7,1293.4z M1239.6,1391.9h30.7c-2-1-3.7-2.2-5-3.7
		c-3.3-3.7-4.8-10-4.8-19.7v-91.4c0-4.6,0.5-7.3,1.8-9.1c0.4-0.6,0.9-1.1,1.5-1.6h-17.5c0.4,0.3,0.7,0.7,1.1,1.1
		c1.4,1.7,1.9,4.3,1.9,8.5v92.6c0,9.7-1.5,15.9-4.7,19.6C1243.3,1389.7,1241.6,1390.9,1239.6,1391.9 M1287.5,1401.2h-65.2v-15.5
		l4.3-0.3c7.5-0.5,10-2.3,10.9-3.3c0.7-0.8,2.4-3.9,2.4-13.5V1276c0-0.9,0-1.6-0.1-2.1h-0.3c-6.7,0-12.8,2.3-18.6,7
		c-5.9,4.8-10.6,11.7-14.1,20.4l-1.7,4.3l-16.9-6.3l12-42h108.8l11.9,42l-16.7,6.4l-1.7-4.3c-3.5-8.7-8.2-15.6-14.2-20.4
		c-5.8-4.7-11.8-7-18.4-7c-0.2-1.1-0.5,0.2-0.5,3.3v91.4c0,9.6,1.7,12.7,2.5,13.5c0.9,1,3.5,2.8,11,3.3l4.3,0.3V1401.2z"/>
	<path class="st0" d="M1351.1,1261.7h56.7v6.4c-7.1,0.7-11.9,2.3-14.3,5c-2.4,2.7-3.6,8.1-3.6,16.3v79.2c0,8.3,1.2,13.8,3.6,16.6
		c2.4,2.7,7.2,4.4,14.2,4.9v6.5h-56.7v-6.5c7.2-0.7,12-2.3,14.5-5c2.5-2.7,3.7-8.2,3.7-16.4v-79.2c0-8.2-1.2-13.6-3.6-16.3
		c-2.4-2.7-7.3-4.3-14.5-5V1261.7z"/>
	<path class="st0" d="M1363.7,1391.9h31.4c-2-1-3.7-2.2-5-3.7c-3.3-3.7-4.8-10-4.8-19.7v-79.2c0-9.6,1.5-15.7,4.7-19.4
		c1.3-1.4,3-2.7,5.1-3.6H1364c2.1,1,3.8,2.2,5.1,3.6c3.3,3.6,4.8,9.8,4.8,19.4v79.2c0,9.6-1.6,15.9-4.9,19.6
		C1367.7,1389.6,1365.9,1390.9,1363.7,1391.9 M1412.5,1401.2h-66v-15.4l4.2-0.4c7.8-0.7,10.5-2.5,11.4-3.5c0.7-0.8,2.5-3.8,2.5-13.3
		v-79.2c0-9.4-1.7-12.4-2.4-13.2c-0.9-1-3.6-2.8-11.5-3.5l-4.2-0.4v-15.3h66v15.3l-4.2,0.4c-7.7,0.7-10.3,2.5-11.2,3.5
		c-0.7,0.8-2.4,3.7-2.4,13.2v79.2c0,9.6,1.7,12.7,2.5,13.5c0.9,1,3.5,2.8,11,3.3l4.3,0.3V1401.2z"/>
	<path class="st0" d="M1522.1,1268.5c-15.3,0-27.3,5.4-36,16.2c-8.7,10.8-13.1,25.6-13.1,44.5c0,18.8,4.4,33.6,13.1,44.3
		c8.7,10.7,20.7,16.1,36,16.1c15.2,0,27.2-5.4,35.9-16.1c8.8-10.8,13.2-25.5,13.2-44.3c0-18.8-4.4-33.7-13.2-44.5
		C1549.3,1273.9,1537.3,1268.5,1522.1,1268.5 M1522.1,1258.7c20.9,0,38.2,6.6,51.9,19.9c13.6,13.3,20.5,30.2,20.5,50.6
		c0,20.5-6.8,37.3-20.4,50.5s-30.9,19.8-52,19.8c-21.1,0-38.5-6.6-52-19.8c-13.5-13.2-20.3-30-20.3-50.6c0-20.6,6.8-37.5,20.4-50.7
		C1483.8,1265.3,1501.1,1258.7,1522.1,1258.7"/>
	<path class="st0" d="M1522.1,1273.1c-13.9,0-24.5,4.7-32.4,14.5c-8,9.9-12.1,23.9-12.1,41.6c0,17.6,4.1,31.6,12.1,41.4
		c7.9,9.7,18.5,14.4,32.4,14.4c13.8,0,24.4-4.7,32.3-14.4c8-9.8,12.1-23.8,12.1-41.4c0-17.6-4.1-31.6-12.1-41.6
		C1546.5,1277.9,1536,1273.1,1522.1,1273.1 M1522.1,1394.3c-16.6,0-30-6-39.6-17.8c-9.4-11.5-14.2-27.5-14.2-47.3
		c0-19.9,4.8-35.9,14.1-47.5c9.6-11.9,23-17.9,39.6-17.9c16.6,0,29.9,6.1,39.6,18c9.4,11.6,14.2,27.6,14.2,47.4
		c0,19.8-4.8,35.7-14.2,47.2C1552,1388.3,1538.7,1394.3,1522.1,1394.3 M1522.1,1263.3c-19.9,0-35.9,6.1-48.7,18.5
		c-12.8,12.4-19,27.9-19,47.4c0,19.4,6.2,34.9,18.9,47.2c12.6,12.2,29,18.4,48.8,18.4c20,0,36-6.1,48.7-18.5
		c12.8-12.4,19-27.9,19-47.2c0-19.3-6.2-34.8-19.1-47.3C1557.9,1269.4,1542,1263.3,1522.1,1263.3 M1522.1,1404.2
		c-22.3,0-40.9-7.1-55.3-21.1c-14.4-14-21.7-32.2-21.7-53.9c0-21.8,7.3-40,21.8-54.1c14.5-14,33-21.1,55.2-21.1
		c22.1,0,40.6,7.1,55.1,21.2c14.5,14.1,21.9,32.3,21.9,54s-7.3,39.8-21.8,53.8C1563,1397.1,1544.4,1404.2,1522.1,1404.2"/>
	<path class="st0" d="M1636.2,1261.7h43.9l67.1,107.2v-79.6c0-8.1-1.2-13.5-3.6-16.2c-2.4-2.7-7.1-4.4-14.1-5.1v-6.4h47.6v6.4
		c-7.1,0.6-11.8,2.3-14.2,5c-2.4,2.7-3.6,8.2-3.6,16.3v107.1h-18l-75.1-116.7v88.8c0,8.3,1.2,13.8,3.7,16.6
		c2.5,2.7,7.2,4.4,14.3,4.9v6.5h-47.9v-6.5c7.1-0.5,11.8-2.2,14.3-5c2.5-2.8,3.7-8.3,3.7-16.5v-79.2c0-8.1-1.2-13.5-3.6-16.3
		c-2.4-2.8-7.2-4.4-14.3-5V1261.7z"/>
	<path class="st0" d="M1648.9,1391.9h22.4c-2-1-3.7-2.2-5-3.6c-3.3-3.8-4.9-10-4.9-19.7v-102.2H1649c2.1,1,3.7,2.2,5,3.7
		c3.3,3.7,4.8,9.9,4.8,19.4v79.2c0,9.5-1.6,15.9-4.9,19.6C1652.6,1389.7,1650.9,1390.9,1648.9,1391.9 M1743.8,1391.9h10.8v-102.5
		c0-9.5,1.5-15.6,4.8-19.4c1.3-1.5,2.9-2.7,5-3.7H1742c2.1,1,3.8,2.2,5.1,3.7c3.2,3.7,4.7,9.8,4.7,19.3v95.8l-74.3-118.8H1663
		L1743.8,1391.9z M1763.8,1401.2h-25.1l-68-105.6v73c0,9.6,1.8,12.6,2.5,13.5c0.9,1,3.6,2.8,11.1,3.3l4.3,0.3v15.5h-57.2v-15.5
		l4.3-0.3c7.5-0.5,10.2-2.4,11.1-3.4c0.8-0.9,2.5-3.9,2.5-13.5v-79.2c0-9.4-1.7-12.4-2.5-13.2c-0.9-1-3.5-2.8-11.2-3.4l-4.3-0.3
		v-15.3h51.1l59.9,95.7v-63.4c0-9.4-1.7-12.3-2.4-13.2c-0.7-0.8-3.2-2.8-11-3.5l-4.2-0.4v-15.3h56.9v15.3l-4.3,0.3
		c-7.6,0.6-10.2,2.4-11.1,3.4c-0.7,0.9-2.5,3.8-2.5,13.2V1401.2z"/>
	<path class="st0" d="M1994.1,1268.1l3.1-6.4h6.9l11.9,35.5l-7.1,2.1c-5.9-10-12.9-17.7-21.1-23.2c-8.2-5.5-16.8-8.2-25.9-8.2
		c-8.6,0-15.6,2-20.9,6.1c-5.3,4.1-8,9.3-8,15.6c0,10.2,14.7,18.9,44.1,26l2.7,0.6c1.2,0.3,2.9,0.7,5.2,1.2
		c13.5,3.2,22.9,7,28.2,11.5c3.9,3.3,6.9,7.2,9,11.7c2.1,4.5,3.1,9.4,3.1,14.6c0,12.1-5.2,22.4-15.5,30.9
		c-10.3,8.5-22.8,12.8-37.6,12.8c-7.7,0-14.8-1-21.4-2.9c-6.6-1.9-13.3-5-20-9.2l-4.2,9.8h-7l-12.7-46.2l7.4-2.3
		c6.5,13.2,14.7,23.3,24.4,30.3c9.7,7,20.5,10.5,32.3,10.5c10,0,18.3-2.8,24.9-8.5c6.6-5.7,9.9-12.6,9.9-20.8
		c0-11.1-12-19.4-36.1-25.1c-1.7-0.5-3-0.8-3.8-1c-20.9-5.1-34.9-10.5-41.9-16.1c-7-5.6-10.5-13.2-10.5-22.9
		c0-10.5,4.3-19.1,13-25.8c8.7-6.7,19.9-10.1,33.7-10.1c5.4,0,10.8,0.8,16.3,2.3C1981.9,1262.5,1987.8,1264.9,1994.1,1268.1"/>
	<path class="st0" d="M1984.4,1268.7c2,1,4,2.2,6,3.5c6.9,4.6,13.1,10.8,18.5,18.4l-8.1-24.3h-0.6l-3.9,8l-4.2-2.1
		C1989.4,1270.9,1986.9,1269.8,1984.4,1268.7 M1928.6,1379.9l4.6,2.8c6.4,4,12.7,6.9,18.9,8.7c6.1,1.8,12.9,2.7,20.1,2.7
		c13.8,0,25.1-3.8,34.7-11.7c9.2-7.7,13.8-16.6,13.8-27.3c0-4.6-0.9-8.8-2.7-12.7c-1.7-3.9-4.3-7.2-7.7-10.1
		c-4.7-4-13.5-7.5-26.2-10.5l-7.8-1.7c-32.7-7.9-47.8-17.6-47.8-30.5c0-7.8,3.3-14.3,9.8-19.3c5.5-4.2,12.4-6.5,20.7-7
		c-12.1,0.2-22.1,3.3-29.7,9.1c-7.6,5.8-11.2,13-11.2,22.1c0,8.2,2.9,14.5,8.8,19.2c6.4,5.2,20,10.3,40.1,15.2l3.9,1
		c26.6,6.3,39.6,16,39.6,29.6c0,9.6-3.9,17.8-11.5,24.4c-7.4,6.4-16.8,9.6-27.9,9.6c-12.7,0-24.5-3.8-35-11.4
		c-8.8-6.3-16.4-15-22.6-25.9l10.1,35.7L1928.6,1379.9z M1972.1,1403.4c-8.1,0-15.7-1-22.7-3.1c-5.4-1.6-11-3.9-16.5-7l-3.3,7.8
		H1916l-14.8-54l15.5-4.7l1.7,3.5c6.2,12.5,13.9,22.1,23,28.6c8.9,6.4,18.8,9.6,29.6,9.6c8.9,0,16.1-2.4,21.8-7.4
		c5.5-4.8,8.2-10.4,8.2-17.3c0-10.6-17.7-17.1-32.5-20.6l-3.8-1c-21.8-5.3-36.1-10.9-43.8-17c-8.2-6.5-12.3-15.4-12.3-26.5
		c0-11.9,5-21.8,14.9-29.4c9.5-7.3,21.8-11,36.6-11c5.7,0,11.6,0.8,17.6,2.5c4.6,1.3,9.4,3.1,14.3,5.4l2.4-4.8h13.1l14.5,43.3
		l-15.2,4.5l-1.8-3.1c-5.5-9.4-12.1-16.7-19.7-21.7c-14.2-9.5-32.2-9.4-41.4-2.3c-4.1,3.1-6.2,7-6.2,11.9c0,3.5,4,12.6,40.6,21.5
		l7.8,1.8c14.4,3.4,24.2,7.5,30.1,12.4c4.5,3.7,7.9,8.2,10.2,13.3c2.3,5.1,3.5,10.6,3.5,16.5c0,13.5-5.8,25.1-17.1,34.5
		C2001.6,1398.8,1987.9,1403.4,1972.1,1403.4"/>
	<path class="st0" d="M2066.2,1261.7h113l13.3,35.1l-6.2,2.8c-8.3-10.1-17.4-17.6-27.2-22.3c-9.8-4.7-21.1-7.1-34-7.1
		c-7.7,0-13.1,1.3-16,3.9c-2.9,2.6-4.4,7.7-4.4,15.1v30.6h13.3c8.8,0,14.9-1.7,18.3-5.1c3.4-3.4,5.7-9.9,6.8-19.7h7v59.1h-7
		c-1.1-9.7-3.4-16.3-6.8-19.6c-3.4-3.3-9.5-5-18.4-5h-13.3v39.3c0,7.8,1.7,13,5,15.5c3.3,2.5,9.5,3.8,18.5,3.8
		c12.9,0,24.4-2.8,34.5-8.4c10.1-5.6,20.5-15,31.1-28.2l5.6,2.5l-17.1,42.2h-116v-6.5c7-0.5,11.7-2.2,14.1-4.9
		c2.4-2.7,3.6-8.3,3.6-16.6v-79.2c0-8.2-1.2-13.6-3.6-16.3c-2.4-2.7-7.1-4.4-14.2-5V1261.7z"/>
	<path class="st0" d="M2136.7,1266.4c8.9,1.1,17,3.3,24.4,6.9c8.7,4.2,17,10.4,24.5,18.6l-9.6-25.5H2136.7z M2078.8,1391.9h36.1
		c-3.4-0.8-6.1-2-8.1-3.5c-4.6-3.5-6.8-9.8-6.8-19.2v-44h17.9c10.2,0,17.3,2.1,21.6,6.3c2.5,2.4,4.4,5.9,5.9,10.6v-34.5
		c-1.4,4.7-3.4,8.2-5.9,10.7c-4.4,4.3-11.5,6.4-21.6,6.4H2100v-35.3c0-8.9,2-15,6-18.6c2.5-2.2,5.9-3.7,10.3-4.4h-37.3
		c2,1,3.6,2.2,4.9,3.6c3.3,3.7,4.8,9.8,4.8,19.4v79.2c0,9.7-1.5,15.9-4.8,19.7C2082.5,1389.7,2080.8,1390.9,2078.8,1391.9
		 M2142.8,1391.9h36.3l12.1-29.8c-8.9,10-17.8,17.4-26.3,22.1C2158.1,1387.9,2150.7,1390.5,2142.8,1391.9 M2185.4,1401.2h-123.9
		v-15.5l4.3-0.3c7.5-0.5,10.1-2.3,11-3.3c0.7-0.9,2.5-3.9,2.5-13.5v-79.2c0-9.5-1.7-12.4-2.4-13.3c-0.7-0.8-3.2-2.7-11.1-3.4
		l-4.3-0.3v-15.3h120.9l15.9,42.2l-13.4,6.1l-2.3-2.8c-7.8-9.5-16.5-16.6-25.6-21c-9.2-4.4-19.9-6.6-32-6.6
		c-8.5,0-11.8,1.7-12.9,2.7c-1.1,0.9-2.9,3.7-2.9,11.6v26h8.6c9.3,0,13.3-2,15.1-3.7c1.8-1.8,4.3-6.2,5.5-16.9l0.5-4.1h15.8v68.4
		h-15.8l-0.5-4.1c-1.3-11.3-3.9-15.3-5.4-16.8c-1.7-1.7-5.7-3.6-15.1-3.6h-8.6v34.7c0,6.1,1.1,10.3,3.2,11.8
		c1.4,1.1,5.3,2.8,15.7,2.8c12,0,22.9-2.6,32.2-7.8c9.5-5.3,19.5-14.4,29.8-27.1l2.2-2.8l13,5.7L2185.4,1401.2z"/>
	<path class="st0" d="M2277.2,1325.4h19.7c10.6,0,18-0.3,22.1-1c4.1-0.7,7.6-1.8,10.4-3.4c3.9-2.2,6.9-5.3,9.2-9.6
		c2.3-4.2,3.4-8.9,3.4-14c0-9.3-3.2-16.1-9.6-20.5c-6.4-4.4-16.5-6.6-30.4-6.6c-10.7,0-17.6,1-20.5,3c-2.9,2-4.4,7-4.4,15.1V1325.4z
		 M2239,1261.7h66.3c19,0,33.4,2.8,43.1,8.5c9.7,5.7,14.6,14,14.6,25.1c0,9.5-3,17.4-8.9,23.4c-6,6.1-14.8,10.4-26.7,12.9l25.6,37.6
		c4.9,7.3,9.4,12.6,13.3,15.7c4,3.1,8.2,5,12.8,5.5v6.2h-32.2l-42.6-62.5h-27.2v34.5c0,8.3,1.2,13.8,3.6,16.6
		c2.4,2.7,7.1,4.4,14.1,4.9v6.5H2239v-6.5c7-0.5,11.7-2.2,14.1-4.9c2.4-2.7,3.6-8.3,3.6-16.6v-79.2c0-8.2-1.2-13.6-3.6-16.3
		c-2.4-2.7-7.1-4.4-14.2-5V1261.7z"/>
	<path class="st0" d="M2281.8,1320.8h15.1c10.3,0,17.5-0.3,21.4-1c3.6-0.6,6.6-1.5,9-2.9c3.1-1.7,5.5-4.3,7.4-7.7
		c1.9-3.6,2.9-7.4,2.9-11.8c0-7.7-2.5-13.2-7.6-16.7c-5.6-3.8-14.9-5.8-27.8-5.8c-13.6,0-17.1,1.7-17.9,2.2
		c-0.3,0.2-2.4,1.9-2.4,11.2V1320.8z M2318.1,1266.9c7.1,1.2,12.7,3.3,17,6.2c7.7,5.3,11.6,13.4,11.6,24.3c0,5.9-1.3,11.4-4,16.2
		c-2.7,4.9-6.4,8.8-11,11.4c-1,0.6-2.1,1.1-3.2,1.5c9.8-2.3,17.3-6.1,22.2-11.1c5.1-5.2,7.6-11.8,7.6-20.2c0-9.4-4-16.2-12.2-21
		C2339.4,1270.3,2330,1267.9,2318.1,1266.9 M2251.6,1391.9h30.6c-2-1-3.7-2.2-5-3.6c-3.3-3.7-4.8-10-4.8-19.7v-80.2
		c0-9.9,2.1-15.9,6.4-18.9c2.2-1.5,5.5-2.5,10.1-3.1h-37.3c2,1,3.6,2.2,4.9,3.6c3.3,3.7,4.8,9.8,4.8,19.4v79.2
		c0,9.7-1.5,15.9-4.8,19.7C2255.3,1389.7,2253.7,1390.9,2251.6,1391.9 M2349.4,1391.9h19.3c-1.8-0.9-3.5-2.1-5.2-3.4
		c-4.4-3.5-9.1-9-14.3-16.8l-29.2-42.8c-0.1,0-0.1,0-0.2,0c-2.9,0.5-7,0.8-12.6,1L2349.4,1391.9z M2383.7,1401.2h-39.3l-42.6-62.5
		h-20.1v29.9c0,9.7,1.7,12.7,2.5,13.5c0.9,1,3.5,2.8,11,3.3l4.3,0.3v15.5h-65.2v-15.5l4.3-0.3c7.5-0.5,10.1-2.3,11-3.3
		c0.7-0.9,2.5-3.9,2.5-13.5v-79.2c0-9.5-1.7-12.4-2.4-13.3c-0.7-0.8-3.2-2.7-11.1-3.4l-4.3-0.3v-15.3h71c20.1,0,34.9,3,45.5,9.1
		c11.2,6.5,16.9,16.3,16.9,29.1c0,10.8-3.5,19.8-10.2,26.7c-5.4,5.5-12.9,9.7-22.4,12.5l21.9,32.1c4.6,6.9,8.8,11.8,12.4,14.7
		c3.3,2.6,6.8,4.1,10.4,4.5l4.1,0.5V1401.2z"/>
	<path class="st0" d="M2403.6,1261.7h55.9v6.6c-6,0.8-10.3,1.9-13,3.5c-2.7,1.5-4.1,3.6-4.1,6.2c0,1.1,0.2,2.3,0.6,3.9
		c0.4,1.5,1,3.3,1.8,5.3l35.2,89.4l35.1-84.4c1-2.4,1.7-4.6,2.3-6.5c0.5-1.9,0.8-3.4,0.8-4.6c0-3.4-1.3-6-3.9-8
		c-2.6-1.9-7.5-3.5-14.6-4.9v-6.6h51.7v6.6c-6.3,1.4-11,3.3-14.3,5.8c-3.2,2.5-6.4,7.4-9.5,14.7l-45.6,110.6h-13.6l-45.4-112.9
		c-2.3-5.7-4.8-9.8-7.6-12.3c-2.7-2.5-6.7-4.5-11.8-5.8V1261.7z"/>
	<path class="st0" d="M2471.5,1394.7h7.4l44.4-107.7c3.4-8.1,7-13.5,10.9-16.6c2-1.6,4.5-2.9,7.3-4.1h-30.7c2.6,0.9,4.6,1.9,6.2,3
		c3.8,2.8,5.9,6.9,5.9,11.7c0,1.6-0.3,3.5-0.9,5.8c-0.6,2.1-1.4,4.4-2.4,7l-39.6,95l-39.4-100.1c-0.9-2.2-1.5-4.2-2-5.9
		c-0.5-1.9-0.7-3.5-0.7-5c0-3,1.1-7.2,6.4-10.3c0.9-0.5,1.8-0.9,2.9-1.4h-35.2c2.6,1.2,4.8,2.7,6.6,4.3c3.3,3,6.2,7.6,8.7,14
		L2471.5,1394.7z M2485.1,1404h-19.9l-46.6-115.8c-2.5-6.3-4.9-9.2-6.4-10.6c-2.2-2-5.5-3.6-9.8-4.8l-3.5-0.9v-14.8h65.2v15.3
		l-4.1,0.5c-6.6,0.9-9.8,2.1-11.3,2.9c-1.7,1-1.7,1.7-1.7,2.2s0.1,1.3,0.5,2.7c0.3,1.4,0.9,3,1.6,4.8l31,78.7l30.7-73.8
		c0.9-2.2,1.6-4.2,2.1-5.9c0.5-2,0.6-3,0.6-3.4c0-1.9-0.6-3.2-2-4.2c-1.1-0.8-4.3-2.5-12.8-4.1l-3.8-0.7v-15.1h61v15l-3.7,0.8
		c-5.6,1.2-9.7,2.9-12.4,5c-1.8,1.4-4.6,4.7-8,12.8L2485.1,1404z"/>
	<path class="st0" d="M2580.8,1261.7h56.7v6.4c-7.1,0.7-11.9,2.3-14.3,5c-2.4,2.7-3.6,8.1-3.6,16.3v79.2c0,8.3,1.2,13.8,3.6,16.6
		c2.4,2.7,7.2,4.4,14.2,4.9v6.5h-56.7v-6.5c7.2-0.7,12-2.3,14.5-5c2.5-2.7,3.7-8.2,3.7-16.4v-79.2c0-8.2-1.2-13.6-3.6-16.3
		c-2.4-2.7-7.3-4.3-14.5-5V1261.7z"/>
	<path class="st0" d="M2593.4,1391.9h31.4c-2-1-3.7-2.2-5-3.7c-3.3-3.7-4.8-10-4.8-19.7v-79.2c0-9.6,1.5-15.7,4.7-19.4
		c1.3-1.4,3-2.7,5.1-3.6h-31.1c2.1,1,3.8,2.2,5.1,3.6c3.3,3.7,4.8,9.8,4.8,19.4v79.2c0,9.6-1.6,15.9-4.9,19.6
		C2597.4,1389.6,2595.6,1390.9,2593.4,1391.9 M2642.2,1401.2h-66v-15.4l4.2-0.4c7.8-0.7,10.5-2.5,11.4-3.5c0.7-0.8,2.5-3.8,2.5-13.3
		v-79.2c0-9.4-1.7-12.4-2.4-13.2c-0.9-1-3.6-2.8-11.5-3.5l-4.2-0.4v-15.3h66v15.3l-4.2,0.4c-7.7,0.7-10.3,2.5-11.2,3.5
		c-0.7,0.8-2.4,3.7-2.4,13.2v79.2c0,9.6,1.7,12.7,2.5,13.5c0.9,1,3.5,2.8,11,3.3l4.3,0.3V1401.2z"/>
	<path class="st0" d="M2789.4,1271.9l4.4-10.2h5.5l10.4,48.4l-5.8,0.9c-6.7-14.3-14.5-25.1-23.4-32.6c-8.9-7.5-18.6-11.2-28.9-11.2
		c-14.6,0-26.5,5.6-35.4,16.8c-9,11.2-13.4,26-13.4,44.5c0,18.8,4.4,33.7,13.3,44.8c8.9,11.1,20.9,16.6,35.9,16.6
		c11,0,21-2.6,30.2-7.7c9.1-5.1,17.1-12.7,23.9-22.7l7.7,4.8c-7.7,11.6-16.8,20.3-27.3,26.1c-10.6,5.8-22.5,8.7-36,8.7
		c-8.1,0-16.2-1.4-24.4-4.2c-8.1-2.8-15.3-6.6-21.4-11.5c-8.1-6.4-14.4-14.4-18.7-23.8c-4.4-9.5-6.6-19.8-6.6-31
		c0-20.2,6.6-36.9,19.8-50c13.2-13.1,30.1-19.7,50.7-19.7c6.7,0,13.2,1.1,19.6,3.2C2775.9,1264.2,2782.5,1267.5,2789.4,1271.9"/>
	<path class="st0" d="M2778.2,1270.8c1.8,1.2,3.6,2.5,5.3,4c6.9,5.8,13.2,13.6,18.8,23.1l-6.3-29.5l-4.5,10.4l-4.6-3
		C2783.9,1273.9,2781,1272.3,2778.2,1270.8 M2736.1,1264.7c-13.2,2.3-24.6,8.1-33.7,17.2c-12.4,12.3-18.4,27.6-18.4,46.7
		c0,10.5,2.1,20.2,6.1,29c4.1,8.8,9.9,16.2,17.4,22.2c5.7,4.6,12.4,8.2,20,10.8c7.9,2.7,15.6,4.1,23.7,3.9
		c-16.1-0.2-29.1-6.4-38.8-18.4c-9.5-11.9-14.4-27.9-14.4-47.7c0-19.4,4.9-35.4,14.5-47.4C2719,1272.9,2726.9,1267.5,2736.1,1264.7
		 M2750.4,1403.8c-8.6,0-17.3-1.5-25.9-4.4c-8.6-2.9-16.3-7.1-22.8-12.3c-8.6-6.8-15.4-15.4-20-25.5c-4.7-10-7-21.1-7-32.9
		c0-21.4,7.1-39.3,21.2-53.3c14.1-14,32.2-21.1,54-21.1c7.1,0,14.2,1.2,21.1,3.4c5.3,1.8,10.8,4.3,16.3,7.5l3.5-8.1h12.3l12.2,56.9
		l-14.1,2.2l-1.5-3.2c-6.3-13.6-13.8-24-22.2-31c-8.1-6.8-16.6-10.1-25.9-10.1c-13.3,0-23.7,4.9-31.8,15.1
		c-8.2,10.3-12.4,24.3-12.4,41.6c0,17.6,4.1,31.7,12.3,41.9c8.1,10,18.6,14.9,32.3,14.9c10.1,0,19.5-2.4,27.9-7.1
		c8.4-4.7,16-11.8,22.3-21.2l2.5-3.7l15.5,9.7l-2.6,4c-8.1,12.2-17.8,21.5-29,27.6C2777.4,1400.7,2764.6,1403.8,2750.4,1403.8"/>
	<path class="st0" d="M2853.9,1261.7h113l13.3,35.1l-6.2,2.8c-8.3-10.1-17.4-17.6-27.2-22.3c-9.8-4.7-21.1-7.1-34-7.1
		c-7.7,0-13.1,1.3-16,3.9c-2.9,2.6-4.4,7.7-4.4,15.1v30.6h13.3c8.8,0,14.9-1.7,18.3-5.1c3.4-3.4,5.7-9.9,6.8-19.7h7v59.1h-7
		c-1.1-9.7-3.4-16.3-6.8-19.6c-3.4-3.3-9.5-5-18.4-5h-13.3v39.3c0,7.8,1.7,13,5,15.5c3.3,2.5,9.5,3.8,18.5,3.8
		c12.9,0,24.4-2.8,34.5-8.4c10.1-5.6,20.5-15,31.1-28.2l5.6,2.5l-17.1,42.2h-116v-6.5c7-0.5,11.7-2.2,14.1-4.9
		c2.4-2.7,3.6-8.3,3.6-16.6v-79.2c0-8.2-1.2-13.6-3.6-16.3c-2.4-2.7-7.1-4.4-14.2-5V1261.7z"/>
	<path class="st0" d="M2924.4,1266.4c8.9,1.1,17,3.3,24.3,6.9c8.7,4.2,16.9,10.4,24.5,18.6l-9.6-25.4H2924.4z M2866.5,1391.9h36.1
		c-3.4-0.8-6.1-2-8.1-3.5c-4.6-3.5-6.8-9.8-6.8-19.2v-44h17.9c10.2,0,17.3,2.1,21.6,6.3c2.5,2.4,4.4,5.9,5.9,10.6v-34.4
		c-1.4,4.7-3.4,8.2-5.9,10.7c-4.4,4.3-11.5,6.4-21.6,6.4h-17.9v-35.3c0-8.9,2-15,6-18.6c2.4-2.2,5.9-3.6,10.3-4.4h-37.3
		c2,1,3.6,2.2,4.9,3.6c3.2,3.7,4.7,9.8,4.7,19.4v79.2c0,9.7-1.5,16-4.8,19.7C2870.2,1389.7,2868.6,1390.9,2866.5,1391.9
		 M2930.5,1391.9h36.3l12.1-29.8c-8.9,9.9-17.8,17.4-26.3,22.1C2945.8,1387.9,2938.4,1390.5,2930.5,1391.9 M2973.1,1401.2h-123.8
		v-15.5l4.3-0.3c7.5-0.5,10.1-2.3,11-3.3c0.7-0.9,2.5-3.9,2.5-13.5v-79.2c0-9.5-1.7-12.4-2.4-13.3c-0.7-0.8-3.2-2.7-11.1-3.4
		l-4.3-0.3v-15.3h120.9l15.9,42.2l-13.4,6.1l-2.3-2.8c-7.9-9.6-16.5-16.6-25.6-21c-9.1-4.4-19.9-6.6-31.9-6.6
		c-8.5,0-11.8,1.7-12.9,2.7c-1.1,1-2.9,3.7-2.9,11.6v26h8.6c9.3,0,13.4-2,15.1-3.7c1.8-1.8,4.2-6.2,5.5-16.9l0.5-4.1h15.8v68.4
		h-15.8l-0.5-4.1c-1.3-10.7-3.6-15-5.4-16.8c-1.7-1.7-5.7-3.7-15.2-3.7h-8.6v34.7c0,6.1,1.1,10.3,3.2,11.8c1.4,1.1,5.3,2.8,15.7,2.8
		c12,0,22.9-2.6,32.2-7.8c9.5-5.3,19.5-14.4,29.8-27.1l2.2-2.8l13,5.7L2973.1,1401.2z"/>
	<path class="st0" d="M3115.4,1268.1l3.1-6.4h6.9l11.9,35.5l-7.1,2.1c-5.9-10-12.9-17.7-21.1-23.2c-8.2-5.5-16.8-8.2-25.9-8.2
		c-8.6,0-15.6,2-20.9,6.1c-5.3,4.1-8,9.3-8,15.6c0,10.2,14.7,18.9,44.1,26l2.7,0.6c1.2,0.3,2.9,0.7,5.2,1.2
		c13.5,3.2,22.9,7,28.2,11.5c3.9,3.3,6.9,7.2,9,11.7c2.1,4.5,3.1,9.4,3.1,14.6c0,12.1-5.2,22.4-15.5,30.9
		c-10.3,8.5-22.8,12.8-37.6,12.8c-7.7,0-14.8-1-21.4-2.9c-6.6-1.9-13.3-5-20-9.2l-4.2,9.8h-7l-12.7-46.2l7.4-2.3
		c6.5,13.2,14.7,23.3,24.4,30.3c9.7,7,20.5,10.5,32.3,10.5c10,0,18.3-2.8,24.9-8.5c6.6-5.7,9.9-12.6,9.9-20.8
		c0-11.1-12-19.4-36.1-25.1c-1.7-0.5-3-0.8-3.8-1c-20.9-5.1-34.9-10.5-41.9-16.1c-7-5.6-10.5-13.2-10.5-22.9
		c0-10.5,4.3-19.1,13-25.8c8.7-6.7,19.9-10.1,33.7-10.1c5.4,0,10.8,0.8,16.3,2.3C3103.2,1262.5,3109.1,1264.9,3115.4,1268.1"/>
	<path class="st0" d="M3105.7,1268.7c2,1,4,2.2,6,3.5c6.9,4.6,13.1,10.8,18.5,18.4l-8.1-24.3h-0.6l-3.9,8l-4.2-2.1
		C3110.7,1270.9,3108.2,1269.8,3105.7,1268.7 M3049.9,1379.9l4.6,2.8c6.4,4,12.7,6.9,18.9,8.7c6.1,1.8,12.9,2.7,20.1,2.7
		c13.8,0,25.1-3.8,34.7-11.7c9.2-7.7,13.8-16.6,13.8-27.3c0-4.5-0.9-8.8-2.7-12.7c-1.7-3.8-4.3-7.2-7.7-10
		c-4.7-4-13.5-7.5-26.2-10.5l-7.8-1.7c-32.7-7.9-47.8-17.6-47.8-30.5c0-7.8,3.3-14.3,9.8-19.3c5.5-4.2,12.4-6.5,20.7-7
		c-12.1,0.2-22.1,3.3-29.7,9.1c-7.6,5.8-11.2,13-11.2,22.1c0,8.2,2.9,14.5,8.8,19.2c6.5,5.2,20,10.3,40.2,15.2l3.9,1
		c26.6,6.3,39.6,16,39.6,29.6c0,9.6-3.9,17.8-11.5,24.4c-7.4,6.4-16.8,9.6-27.9,9.6c-12.7,0-24.5-3.8-35-11.4
		c-8.8-6.3-16.4-15-22.6-25.9l10.1,35.7L3049.9,1379.9z M3093.4,1403.4c-8.1,0-15.7-1-22.7-3.1c-5.4-1.6-11-3.9-16.5-7l-3.3,7.8
		h-13.6l-14.8-54l15.5-4.7l1.7,3.5c6.2,12.5,13.9,22.1,23,28.6c9,6.5,18.7,9.6,29.6,9.6c8.9,0,16.1-2.4,21.8-7.4
		c5.5-4.8,8.2-10.4,8.2-17.3c0-10.6-17.7-17.1-32.5-20.6l-3.8-1c-21.8-5.3-36.1-10.9-43.8-17c-8.2-6.5-12.3-15.5-12.3-26.5
		c0-11.9,5-21.8,14.9-29.4c9.5-7.3,21.8-11,36.6-11c5.7,0,11.6,0.8,17.6,2.5c4.6,1.3,9.4,3.1,14.4,5.4l2.4-4.8h13.1l14.5,43.3
		l-15.2,4.5l-1.8-3.1c-5.5-9.4-12.1-16.7-19.7-21.7c-14.2-9.5-32.2-9.4-41.4-2.3c-4.1,3.1-6.2,7-6.2,11.9c0,3.5,4,12.6,40.6,21.5
		l7.8,1.8c14.4,3.4,24.2,7.5,30.1,12.4c4.5,3.7,7.9,8.2,10.2,13.3c2.3,5.1,3.5,10.7,3.5,16.5c0,13.5-5.8,25.1-17.1,34.5
		C3122.9,1398.8,3109.3,1403.4,3093.4,1403.4"/>
</g>
</svg>
